<?xml version="1.0" standalone="no"?>
<!DOCTYPE svg PUBLIC "-//W3C//DTD SVG 1.1//EN" "http://www.w3.org/Graphics/SVG/1.1/DTD/svg11.dtd" >
<svg xmlns="http://www.w3.org/2000/svg" xmlns:xlink="http://www.w3.org/1999/xlink" version="1.1">
<metadata></metadata>
<defs>
<font id="spina-regularregular" horiz-adv-x="1228" >
<font-face units-per-em="2048" ascent="1638" descent="-410" />
<missing-glyph horiz-adv-x="716" />
<glyph horiz-adv-x="0" />
<glyph horiz-adv-x="682" />
<glyph unicode=" "  horiz-adv-x="716" />
<glyph unicode="&#x09;" horiz-adv-x="716" />
<glyph unicode="&#xa0;" horiz-adv-x="716" />
<glyph unicode="!" horiz-adv-x="327" d="M133 0v207q0 12 9.5 21.5t21.5 9.5t21.5 -9.5t9.5 -21.5v-207q0 -12 -9.5 -21.5t-21.5 -9.5t-21.5 9.5t-9.5 21.5zM133 410v1024q0 12 9.5 21t21.5 9t21.5 -9t9.5 -21v-1024q0 -12 -9.5 -21.5t-21.5 -9.5t-21.5 9.5t-9.5 21.5z" />
<glyph unicode="&#x22;" horiz-adv-x="512" d="M133 1311v350q0 12 9.5 21.5t21.5 9.5t21.5 -9.5t9.5 -21.5v-350q0 -12 -9.5 -21.5t-21.5 -9.5t-21.5 9.5t-9.5 21.5zM317 1311v350q0 12 9.5 21.5t21.5 9.5t21.5 -9.5t9.5 -21.5v-350q0 -12 -9.5 -21.5t-21.5 -9.5t-21.5 9.5t-9.5 21.5z" />
<glyph unicode="#" horiz-adv-x="1568" d="M133 504q0 12 9.5 21.5t21.5 9.5h239l168 458h-305q-12 0 -21 9.5t-9 21.5t9 21.5t21 9.5h328l82 223q7 20 29 20q12 0 21 -9t9 -21q0 -9 -2 -11l-74 -202h406l82 223q7 20 29 20q12 0 21 -9t9 -21q0 -9 -2 -11l-74 -202h275q12 0 21.5 -9.5t9.5 -21.5t-9.5 -21.5 t-21.5 -9.5h-297l-168 -458h363q12 0 21 -9.5t9 -21.5t-9 -21.5t-21 -9.5h-385l-101 -274q-7 -21 -29 -21q-12 0 -21 9.5t-9 21.5q0 8 2 10l92 254h-406l-100 -274q-7 -21 -29 -21q-12 0 -21 9.5t-9 21.5q0 8 2 10l92 254h-217q-12 0 -21.5 9.5t-9.5 21.5zM469 535h405 l168 458h-405z" />
<glyph unicode="$" d="M197 158v237q0 12 9 21.5t21 9.5t21.5 -9.5t9.5 -21.5v-229q24 -30 81.5 -67t141.5 -56v727q-270 117 -270 338q0 68 23.5 126.5t63 100t85.5 69.5t98 44v82q0 12 9.5 21.5t21.5 9.5t21.5 -9.5t9.5 -21.5v-68q27 6 51 6h65v62q0 12 9.5 21.5t21.5 9.5t21.5 -9.5 t9.5 -21.5v-70q90 -15 184 -71q15 -7 15 -21l18 -229v-2q0 -12 -9.5 -21.5t-21.5 -9.5t-20 8.5t-10 20.5l-17 211q-73 41 -139 53v-643q151 -55 223 -145t72 -246q0 -91 -30.5 -167t-98.5 -134t-166 -80v-84q0 -12 -9.5 -21.5t-21.5 -9.5t-21.5 9.5t-9.5 21.5v73 q-40 -4 -65 -4q-35 0 -51 2v-71q0 -12 -9.5 -21.5t-21.5 -9.5t-21.5 9.5t-9.5 21.5v80q-58 11 -110 33.5t-85.5 47.5t-51 41.5t-27.5 28.5l-4 8l-4 11zM272 1108q0 -173 209 -270v546q-89 -33 -149 -102.5t-60 -173.5zM543 33q16 -2 51 -2q25 0 65 4v678l-53 14 q-42 13 -63 21v-715zM543 811q55 -17 80 -25l36 -10v631h-65q-24 0 -51 -6v-590zM721 45q118 31 175.5 116t57.5 204q0 129 -55 204t-178 123v-647z" />
<glyph unicode="%" />
<glyph unicode="&#x26;" horiz-adv-x="1689" d="M10 651q0 143 84 252t230 150q29 10 69 10q92 0 184.5 -63t161.5 -171q219 158 219 244q0 11 -6 23q-2 4 -2 14q0 12 9.5 21.5t21.5 9.5q18 0 29 -19q10 -23 10 -49q0 -121 -268 -309l-600 -406q83 -160 215.5 -244.5t273.5 -84.5q158 0 293 55t225.5 147.5t141.5 214.5 t51 256q0 46 -6 95q-51 10 -91 8q-31 0 -49 -4q-44 -5 -112 -37q-41 -16 -97 -49q-6 -6 -16 -6q-12 0 -21.5 9t-9.5 21q0 16 15 27q47 30 104 55q77 36 129 41q40 4 57 4q58 2 148 -20q60 -17 96 -17q21 0 31 2q148 29 205 175q7 20 28 20q12 0 21.5 -9.5t9.5 -21.5 q0 -2 -1 -6t-1 -6q-72 -178 -252 -213q-12 -2 -41 -2q-32 0 -90 12q4 -54 4 -78q0 -144 -56 -277t-155 -234.5t-245 -162.5t-316 -61q-160 0 -311 99t-240 282q-2 2 -8 14q-33 71 -55 156q-17 76 -17 133zM72 651q0 -59 14 -116q19 -68 41 -119l561 379q-61 97 -140 151.5 t-155 54.5q-26 0 -53 -6q-128 -38 -198 -129t-70 -215z" />
<glyph unicode="'" horiz-adv-x="327" d="M133 1071v350q0 12 9.5 21.5t21.5 9.5t21.5 -9.5t9.5 -21.5v-350q0 -12 -9.5 -21.5t-21.5 -9.5t-21.5 9.5t-9.5 21.5z" />
<glyph unicode="(" horiz-adv-x="735" d="M133 666q0 161 16.5 292t42.5 218.5t64 153.5t76 102.5t83.5 58.5t81 28.5t74.5 6.5q12 0 21.5 -9.5t9.5 -21.5t-9.5 -21.5t-21.5 -9.5q-36 0 -67 -5.5t-70.5 -25.5t-71.5 -53.5t-64.5 -94.5t-54 -142.5t-35 -203.5t-13.5 -273q0 -131 13 -236.5t34.5 -177t53 -124.5 t63.5 -83t71.5 -47.5t71.5 -23t69 -5.5q12 0 21.5 -9t9.5 -21t-9.5 -21.5t-21.5 -9.5q-40 0 -76.5 6t-82 26t-83 52.5t-75 91t-63.5 135.5t-42 192t-16 255z" />
<glyph unicode=")" horiz-adv-x="735" d="M133 -61q0 12 9.5 21t21.5 9q37 0 69 5.5t72 23t71.5 47.5t63.5 83t53.5 124.5t34.5 177.5t13 236q0 151 -13.5 273t-35.5 203.5t-54 142.5t-64 94.5t-72 53.5t-71 25.5t-67 5.5q-12 0 -21.5 9.5t-9.5 21.5t9.5 21.5t21.5 9.5q39 0 74.5 -6.5t81 -28.5t83.5 -58.5 t76 -102.5t64 -153.5t42.5 -218.5t16.5 -292q0 -140 -16 -255t-42 -192t-63.5 -135.5t-75 -91t-83 -52.5t-82 -26t-76.5 -6q-12 0 -21.5 9.5t-9.5 21.5z" />
<glyph unicode="+" />
<glyph unicode="," horiz-adv-x="483" d="M133 207q0 12 9.5 21.5t21.5 9.5h155q13 0 22 -9.5t9 -23.5q0 -163 -27.5 -246.5t-103.5 -120.5q-8 -4 -14 -4q-12 0 -21.5 9.5t-9.5 21.5q0 18 19 29q53 26 73.5 88t22.5 194h-125q-12 0 -21.5 9.5t-9.5 21.5z" />
<glyph unicode="-" horiz-adv-x="1210" d="M133 623q0 12 9.5 21t21.5 9h883q12 0 21 -9t9 -21t-9 -21.5t-21 -9.5h-883q-12 0 -21.5 9.5t-9.5 21.5z" />
<glyph unicode="." horiz-adv-x="327" d="M133 0v207q0 12 9.5 21.5t21.5 9.5t21.5 -9.5t9.5 -21.5v-207q0 -12 -9.5 -21.5t-21.5 -9.5t-21.5 9.5t-9.5 21.5z" />
<glyph unicode="/" horiz-adv-x="870" d="M133 0q0 8 2 12l543 1432q7 20 29 20q12 0 21 -9t9 -21q0 -9 -2 -13l-542 -1431q-7 -21 -29 -21q-12 0 -21.5 9.5t-9.5 21.5z" />
<glyph unicode="0" d="M70 512q0 145 73.5 270.5t198.5 199t270 73.5q109 0 209.5 -43.5t173.5 -117t116.5 -173.5t43.5 -209t-43.5 -209t-116.5 -173.5t-173.5 -117t-209.5 -43.5q-145 0 -270 73.5t-198.5 199t-73.5 270.5zM131 512q0 -131 64.5 -241.5t175 -175t241.5 -64.5q132 0 243 64.5 t175 175t64 241.5t-64 241.5t-175 175t-243 64.5q-131 0 -241.5 -64.5t-175 -175t-64.5 -241.5z" />
<glyph unicode="1" d="M299 0q0 14 8.5 22.5t22.5 8.5h215v962h-215q-14 0 -22.5 8.5t-8.5 22.5t8.5 22.5t22.5 8.5h522q12 0 21.5 -9.5t9.5 -21.5t-9.5 -21.5t-21.5 -9.5h-246v-962h246q12 0 21.5 -9.5t9.5 -21.5t-9.5 -21.5t-21.5 -9.5h-522q-14 0 -22.5 8.5t-8.5 22.5z" />
<glyph unicode="2" d="M197 727q0 85 57 161.5t150.5 121.5t195.5 45q157 0 268 -98t111 -230q0 -327 -715 -698h690v143q0 12 9.5 21.5t21.5 9.5t21.5 -9.5t9.5 -21.5v-174q0 -14 -9 -22.5t-22 -8.5h-725q-25 0 -39.5 24t-9 53t28.5 42q153 80 274 159t213 160t141.5 163t49.5 159 q0 108 -92 187t-226 79q-136 0 -239 -80t-103 -186q0 -12 -9.5 -21.5t-21.5 -9.5t-21 9.5t-9 21.5z" />
<glyph unicode="3" d="M141 -4q0 12 9.5 21.5t21.5 9.5t21.5 -9.5t9.5 -21.5q0 -166 106 -270.5t269 -104.5q180 0 293.5 114t113.5 273q0 165 -83.5 261t-229.5 96h-6q-35 -5 -43 -5q-12 -1 -20.5 7t-10.5 20v4q-2 12 5.5 22t20.5 11l44 2q108 21 170.5 102t62.5 187q0 108 -90.5 193 t-222.5 85q-135 0 -232.5 -84t-97.5 -194q0 -12 -9.5 -21.5t-21.5 -9.5t-21.5 9.5t-9.5 21.5q0 134 117.5 237t274.5 103q156 0 265 -104.5t109 -235.5q0 -93 -44.5 -174.5t-125.5 -130.5q121 -35 191 -143t70 -259q0 -87 -34.5 -168t-94.5 -143t-149 -99.5t-191 -37.5 q-121 0 -221 56t-158 156t-58 224zM285 -293q27 -27 51 -43q-24 16 -51 43zM367 -356q18 -10 43 -21q-25 11 -43 21zM410 -377q84 -33 168 -33q139 0 243 68q-104 -68 -243 -68q-84 0 -168 33z" />
<glyph unicode="4" d="M100.5 -12q-10.5 19 3.5 41l607 950q22 34 58 22.5t36 -51.5v-919h233q13 0 22 -9.5t9 -21.5t-9 -21.5t-22 -9.5h-233v-379q0 -12 -9 -21t-22 -9q-12 0 -21.5 9t-9.5 21v379h-606q-26 0 -36.5 19zM176 31h567v889z" />
<glyph unicode="5" d="M190 -186q0 12 9.5 21t21.5 9t21.5 -9t9.5 -21q0 -70 90.5 -131.5t239.5 -61.5q176 0 293.5 120t117.5 290q0 175 -108.5 297.5t-268.5 122.5q-169 0 -303 -123q-31 -30 -69.5 -15t-34.5 56l61 659q2 11 10.5 19t20.5 8l590 2q12 0 21.5 -9.5t9.5 -21.5t-9.5 -21.5 t-21.5 -9.5l-561 -2l-60 -622q155 141 346 141q121 0 222.5 -65.5t159 -176t57.5 -239.5q0 -125 -61 -233t-170.5 -173t-241.5 -65q-172 0 -282 80.5t-110 173.5z" />
<glyph unicode="6" d="M168 565q17 251 111.5 449t252 316t355.5 134h2q12 0 21.5 -9t9.5 -21t-8.5 -20.5t-20.5 -10.5q-238 -19 -406.5 -193t-228.5 -460q156 186 389 186q183 0 295.5 -128t112.5 -329q0 -100 -29.5 -191t-84 -162.5t-141.5 -114t-194 -42.5q-208 0 -322.5 149.5t-113.5 446.5 zM229 561q-3 -530 375 -530q124 0 213 62.5t131.5 162t42.5 223.5q0 181 -93.5 288t-252.5 107q-79 0 -149 -26t-113 -59t-79.5 -77t-50 -67.5t-22.5 -42.5z" />
<glyph unicode="7" d="M154 782v242q0 14 8.5 22.5t21.5 8.5h828q41 0 53 -41.5t-21 -67.5q-154 -118 -290.5 -303t-224 -375t-137.5 -370t-50 -308q0 -12 -9.5 -21t-21.5 -9t-21 9t-9 21q0 133 51.5 319t141.5 382.5t230.5 387.5t299.5 314h-789v-211q0 -12 -9.5 -21t-21.5 -9t-21 9t-9 21z " />
<glyph unicode="8" d="M152 362q0 75 22 137t54 103.5t84.5 79t98 59.5t109.5 47q-65 26 -111.5 53.5t-89.5 67.5t-65.5 95.5t-22.5 125.5q0 144 111 239t264 95t263 -94.5t110 -239.5q0 -70 -23 -125.5t-67 -96t-90 -67t-111 -53.5q65 -27 109.5 -48.5t98.5 -59t86 -78.5t54.5 -103t22.5 -137 q0 -167 -129 -280t-324 -113t-324.5 113t-129.5 280zM213 362q0 -142 110 -236.5t283 -94.5t282 94t109 237q0 51 -12 94.5t-28.5 75t-49.5 62t-58.5 49t-73.5 41.5t-76.5 34.5t-84.5 33.5l-10 4l-6 -2q-43 -17 -66 -26t-62 -26t-60.5 -29.5t-53 -33t-49 -39t-38.5 -45 t-31 -54.5t-17.5 -63.5t-7.5 -75.5zM262 1130q0 -112 62 -180.5t176 -120.5q-114 52 -176 120.5t-62 180.5q0 96 53 168t142 107q-89 -35 -142 -107t-53 -168zM293 1130q0 -52 17 -94.5t42 -72t69.5 -57t83 -45t99.5 -40.5q51 20 83.5 34t73.5 35t65.5 43t47.5 51t33.5 65.5 t10.5 80.5q0 121 -89.5 197t-222.5 76t-223 -76t-90 -197zM518 1425q2 0 21 3.5t30 3.5q-11 0 -30 -3.5t-21 -3.5zM606 1434q144 0 243 -85t99 -219q0 -21 -4 -57q4 36 4 57q0 134 -99 219t-243 85zM928 1020q12 31 14 53q-2 -22 -14 -53z" />
<glyph unicode="9" d="M158 545q0 101 29 191.5t83.5 162t141.5 114t194 42.5q208 0 322.5 -149.5t113.5 -446.5q-17 -251 -111 -449t-251.5 -316t-355.5 -134h-2q-12 0 -21.5 9t-9.5 21t8 20.5t20 10.5q238 19 406.5 193t228.5 460q-156 -186 -389 -186q-183 0 -295 128t-112 329zM219 545 q0 -181 93.5 -288t252.5 -107q78 0 147.5 25.5t113 59.5t79.5 76.5t50.5 68t21.5 42.5l4 41q3 530 -375 530q-124 0 -213 -62.5t-131.5 -162t-42.5 -223.5z" />
<glyph unicode=":" horiz-adv-x="327" d="M133 0v207q0 12 9.5 21.5t21.5 9.5t21.5 -9.5t9.5 -21.5v-207q0 -12 -9.5 -21.5t-21.5 -9.5t-21.5 9.5t-9.5 21.5zM133 717v207q0 12 9.5 21t21.5 9t21.5 -9t9.5 -21v-207q0 -12 -9.5 -21.5t-21.5 -9.5t-21.5 9.5t-9.5 21.5z" />
<glyph unicode=";" horiz-adv-x="483" d="M133 207q0 12 9.5 21.5t21.5 9.5h155q13 0 22 -9.5t9 -23.5q0 -163 -27.5 -246.5t-103.5 -120.5q-8 -4 -14 -4q-12 0 -21.5 9.5t-9.5 21.5q0 18 19 29q53 26 73.5 88t22.5 194h-125q-12 0 -21.5 9.5t-9.5 21.5zM217 717v207q0 12 9.5 21t21.5 9t21.5 -9t9.5 -21v-207 q0 -12 -9.5 -21.5t-21.5 -9.5t-21.5 9.5t-9.5 21.5z" />
<glyph unicode="&#x3c;" />
<glyph unicode="=" />
<glyph unicode="&#x3e;" />
<glyph unicode="?" horiz-adv-x="993" d="M133 1133v4l19 227q0 15 10 18q74 44 143.5 64.5t171.5 17.5q45 -1 95 -14.5t101.5 -42.5t93 -69t67.5 -101t26 -133q0 -73 -29.5 -135.5t-83 -107.5t-118 -76.5t-142.5 -53.5v-321q0 -12 -9 -21.5t-21 -9.5t-21.5 9.5t-9.5 21.5v346q0 9 6.5 17t16.5 9 q159 42 254.5 121.5t95.5 200.5q0 73 -32 132t-82 93.5t-103.5 53t-104.5 20.5q-87 3 -144.5 -12t-121.5 -50l-16 -211q-2 -12 -10.5 -20t-20.5 -8t-21.5 9.5t-9.5 21.5zM428 0v207q0 12 9.5 21.5t21.5 9.5t21 -9.5t9 -21.5v-207q0 -12 -9 -21.5t-21 -9.5t-21.5 9.5 t-9.5 21.5z" />
<glyph unicode="@" horiz-adv-x="1536" d="M98 717q0 205 90 376.5t248.5 271t349.5 99.5q190 0 337 -77.5t233 -232t86 -366.5q0 -213 -63.5 -326.5t-188.5 -113.5q-118 0 -176 150q-35 -77 -103 -128t-147 -51q-125 0 -217 122.5t-92 283.5q0 100 34.5 181.5t106 132.5t168.5 51q56 0 111 -25t94 -66l4 78 q0 12 9.5 20.5t21.5 8.5t21 -10t9 -23q-6 -183 -6 -184l2 -19v-4l-2 -8q0 -106 14 -225l2 -8q33 -215 146 -215q96 0 143 92t47 286q0 294 -162.5 454.5t-431.5 160.5q-131 0 -247.5 -53t-199.5 -144.5t-131 -218.5t-48 -270q0 -141 48.5 -267.5t133 -218.5t205 -146 t256.5 -54q188 0 334.5 74t216.5 198q6 16 26 16q12 0 21.5 -9t9.5 -21q0 -5 -4 -17q-78 -137 -239 -220t-365 -83q-197 0 -359.5 101t-254 272.5t-91.5 374.5zM516 725q0 -140 74.5 -242t173.5 -102q89 0 154 75t65 171q-16 101 -16 245v13q-9 57 -70 100t-133 43 q-119 0 -183.5 -84t-64.5 -219z" />
<glyph unicode="A" horiz-adv-x="1560" d="M72 0q0 14 8.5 22.5t21.5 8.5h111l500 1374q12 34 43 34t43 -32l542 -1376h148q12 0 21.5 -9.5t9.5 -21.5t-9.5 -21.5t-21.5 -9.5h-299q-14 0 -22.5 8.5t-8.5 22.5t8.5 22.5t22.5 8.5h86l-223 567h-570l-207 -567h125q12 0 21.5 -9.5t9.5 -21.5t-9.5 -21.5t-21.5 -9.5 h-299q-13 0 -21.5 8.5t-8.5 22.5zM506 659h522l-272 689z" />
<glyph unicode="B" horiz-adv-x="1120" d="M123 1434q0 12 9.5 21t21.5 9h399q194 0 307 -104t113 -275q0 -115 -52 -195t-151 -120q142 -37 217.5 -136t75.5 -251q0 -195 -129.5 -304.5t-368.5 -109.5h-381q-13 0 -21.5 8.5t-8.5 22.5t8.5 22.5t21.5 8.5h101v1372h-131q-12 0 -21.5 9.5t-9.5 21.5zM346 31h219 q217 0 326.5 90.5t109.5 261.5t-103.5 258.5t-305.5 87.5h-29q-13 0 -22 8.5t-9 22.5v8q0 10 8 16.5t19 6.5q352 9 352 294q0 150 -92.5 234t-265.5 84h-207v-1372z" />
<glyph unicode="C" horiz-adv-x="1302" d="M61 723q0 333 199.5 537t530.5 204q211 0 378 -90q15 -9 15 -24v-332q0 -12 -9.5 -21.5t-21.5 -9.5t-21.5 9.5t-9.5 21.5v311q-148 74 -331 74q-310 0 -489 -184t-179 -496q0 -314 180 -503t488 -189q190 0 337 75v312q0 12 9.5 21.5t21.5 9.5t21.5 -9.5t9.5 -21.5v-332 q0 -17 -14 -23q-163 -94 -385 -94q-165 0 -302 55.5t-230.5 154.5t-145.5 239t-52 305z" />
<glyph unicode="D" horiz-adv-x="1445" d="M154 0q0 14 8.5 22.5t21.5 8.5h101v1372h-101q-13 0 -21.5 8.5t-8.5 22.5t8 22t22 8h473q152 0 273.5 -35.5t205.5 -100.5t140 -158.5t82 -206t26 -246.5q0 -137 -23 -247t-79 -205.5t-144.5 -159.5t-224 -100t-313.5 -36h-416q-13 0 -21.5 8.5t-8.5 22.5zM346 31h254 q166 0 291 31.5t207 88.5t132.5 144t71.5 189t21 233q0 160 -37.5 283.5t-115.5 215t-207.5 139.5t-305.5 48h-311v-1372z" />
<glyph unicode="E" horiz-adv-x="1267" d="M154 0q0 14 8.5 22.5t21.5 8.5h101v1372h-101q-13 0 -21.5 8.5t-8.5 22.5t8 22t22 8h895q10 0 18 -6t9 -16l82 -332l2 -8q0 -12 -9.5 -21.5t-21.5 -9.5q-24 0 -31 25l-75 307h-707v-602h426v135q0 12 9.5 21.5t21.5 9.5t21.5 -9.5t9.5 -21.5v-330q0 -12 -9.5 -21.5 t-21.5 -9.5t-21.5 9.5t-9.5 21.5v133h-426v-708h709l96 309q2 9 10.5 15.5t18.5 6.5q26 0 30 -28v-4l-2 -8l-102 -332q-7 -21 -27 -21h-895q-13 0 -21.5 8.5t-8.5 22.5z" />
<glyph unicode="F" horiz-adv-x="1247" d="M154 0q0 14 8.5 22.5t21.5 8.5h101v1372h-101q-13 0 -21.5 8.5t-8.5 22.5t8 22t22 8h895q10 0 18 -6t9 -16l82 -332l2 -8q0 -12 -9.5 -21.5t-21.5 -9.5q-24 0 -31 25l-75 307h-707v-602h426v135q0 12 9.5 21.5t21.5 9.5t21.5 -9.5t9.5 -21.5v-330q0 -12 -9.5 -21.5 t-21.5 -9.5t-21.5 9.5t-9.5 21.5v133h-426v-708h137q12 0 21.5 -9.5t9.5 -21.5t-9.5 -21.5t-21.5 -9.5h-299q-13 0 -21.5 8.5t-8.5 22.5z" />
<glyph unicode="G" horiz-adv-x="1249" d="M61 721q0 163 53.5 302.5t145.5 235.5t219 150.5t271 54.5q252 0 419 -90q15 -9 15 -24v-332q0 -12 -9.5 -21.5t-21.5 -9.5t-21.5 9.5t-9.5 21.5v311q-151 74 -372 74q-133 0 -248.5 -49t-199 -136.5t-131.5 -216t-48 -280.5q0 -314 180 -502t488 -188q102 0 204.5 19.5 t173.5 55.5v461h-243q-12 0 -21.5 9.5t-9.5 21.5t9.5 21.5t21.5 9.5h264q2 2 10 2t10 -2h146q12 0 21 -9.5t9 -21.5t-9 -21.5t-21 -9.5h-125v-481q0 -17 -12 -23q-77 -44 -195.5 -69t-232.5 -25q-220 0 -386 95t-255 265.5t-89 391.5z" />
<glyph unicode="H" horiz-adv-x="1505" d="M154 0q0 14 8.5 22.5t21.5 8.5h101v1372h-101q-13 0 -21.5 8.5t-8.5 22.5t8 22t22 8h299q12 0 21.5 -9t9.5 -21t-9.5 -21.5t-21.5 -9.5h-137v-539h807v539h-100q-13 0 -22 8.5t-9 22.5q0 13 8.5 21.5t22.5 8.5h299q12 0 21 -9t9 -21t-9 -21.5t-21 -9.5h-138v-1372h138 q12 0 21 -9.5t9 -21.5t-9 -21.5t-21 -9.5h-299q-13 0 -22 8.5t-9 22.5t9 22.5t22 8.5h100v772h-807v-772h137q12 0 21.5 -9.5t9.5 -21.5t-9.5 -21.5t-21.5 -9.5h-299q-13 0 -21.5 8.5t-8.5 22.5z" />
<glyph unicode="I" horiz-adv-x="636" d="M154 0q0 14 8.5 22.5t21.5 8.5h101v1372h-101q-13 0 -21.5 8.5t-8.5 22.5t8 22t22 8h299q12 0 21.5 -9t9.5 -21t-9.5 -21.5t-21.5 -9.5h-137v-1372h137q12 0 21.5 -9.5t9.5 -21.5t-9.5 -21.5t-21.5 -9.5h-299q-13 0 -21.5 8.5t-8.5 22.5z" />
<glyph unicode="J" horiz-adv-x="657" d="M41 -260q0 12 9.5 21.5t21.5 9.5q28 0 57.5 14.5t61.5 53t57 96.5t41 156t16 222v1090h-100q-13 0 -22 8.5t-9 22.5q0 13 8.5 21.5t22.5 8.5h299q12 0 21.5 -9t9.5 -21t-9.5 -21.5t-21.5 -9.5h-137v-1090q0 -138 -19 -247t-49 -174.5t-70.5 -108t-78.5 -58.5t-78 -16 q-12 0 -21.5 9.5t-9.5 21.5z" />
<glyph unicode="K" horiz-adv-x="1431" d="M98 0q0 14 9 22.5t22 8.5h100v1372h-100q-13 0 -22 8.5t-9 22.5q0 13 8.5 21.5t22.5 8.5h299q12 0 21.5 -9t9.5 -21t-9.5 -21.5t-21.5 -9.5h-137v-1372h137q12 0 21.5 -9.5t9.5 -21.5t-9.5 -21.5t-21.5 -9.5h-299q-13 0 -22 8.5t-9 22.5zM451 748q-14 20 2 36l538 619 h-110q-12 0 -21.5 9.5t-9.5 21.5t9.5 21t21.5 9h329q13 0 22 -9t9 -21t-9 -21.5t-22 -9.5h-137l-557 -639q157 -211 289 -357.5t234 -225.5t178 -113t145 -37q12 0 20.5 -9.5t8.5 -21.5t-9 -21.5t-22 -9.5q-78 3 -162 40.5t-193.5 122t-248.5 239.5t-305 377z" />
<glyph unicode="L" horiz-adv-x="1173" d="M154 0q0 14 8.5 22.5t21.5 8.5h101v1372h-101q-13 0 -21.5 8.5t-8.5 22.5t8 22t22 8h299q12 0 21.5 -9t9.5 -21t-9.5 -21.5t-21.5 -9.5h-137v-1372h639l78 264q4 12 15.5 17.5t23.5 2.5q29 -11 20 -39l-86 -286q-7 -21 -26 -21h-826q-13 0 -21.5 8.5t-8.5 22.5z" />
<glyph unicode="M" horiz-adv-x="2174" d="M154 0q0 14 8.5 22.5t21.5 8.5h105l215 1372h-135q-13 0 -22 8.5t-9 22.5q0 13 8.5 21.5t22.5 8.5h170q15 0 25 -8t7 -18l498 -1352l528 1352q-3 10 7.5 18t25.5 8h176q14 0 22.5 -8.5t8.5 -21.5q0 -14 -8.5 -22.5t-22.5 -8.5h-141l215 -1372h141q12 0 21.5 -9.5 t9.5 -21.5t-9.5 -21.5t-21.5 -9.5h-299q-13 0 -21.5 8.5t-8.5 22.5t8.5 22.5t21.5 8.5h95l-201 1286l-504 -1290q-12 -32 -43 -32t-43 32l-473 1286l-201 -1282h131q12 0 21.5 -9.5t9.5 -21.5t-9.5 -21.5t-21.5 -9.5h-299q-13 0 -21.5 8.5t-8.5 22.5z" />
<glyph unicode="N" horiz-adv-x="1677" d="M154 0q0 14 8.5 22.5t21.5 8.5h101v1372h-101q-13 0 -21.5 8.5t-8.5 22.5t8 22t22 8h131q31 0 31 -20l979 -1350v1309h-100q-13 0 -22 8.5t-9 22.5q0 13 8.5 21.5t22.5 8.5h299q12 0 21 -9t9 -21t-9 -21.5t-21 -9.5h-138v-1346q0 -39 -34 -49q-8 -3 -16 -2q-23 0 -40 23 l-950 1310v-1308h137q12 0 21.5 -9.5t9.5 -21.5t-9.5 -21.5t-21.5 -9.5h-299q-13 0 -21.5 8.5t-8.5 22.5z" />
<glyph unicode="O" horiz-adv-x="1579" d="M61 717q0 220 89 389t255 263.5t386 94.5q219 0 384.5 -94.5t254 -263.5t88.5 -389q0 -221 -88.5 -391t-254 -264.5t-384.5 -94.5q-220 0 -386 94.5t-255 264.5t-89 391zM123 717q0 -314 179.5 -501t488.5 -187q307 0 486 187t179 501q0 312 -179 499t-486 187 q-309 0 -488.5 -186.5t-179.5 -499.5z" />
<glyph unicode="P" horiz-adv-x="1103" d="M154 0q0 14 8.5 22.5t21.5 8.5h101v1372h-101q-13 0 -21.5 8.5t-8.5 22.5t8 22t22 8h361q239 0 368 -104.5t129 -298.5q0 -196 -128 -314t-351 -118l-65 4q-12 2 -20.5 10.5t-8.5 20.5t9.5 21t21.5 9h2l63 -4q200 0 308 98.5t108 272.5q0 342 -436 342h-199v-1372h137 q12 0 21.5 -9.5t9.5 -21.5t-9.5 -21.5t-21.5 -9.5h-299q-13 0 -21.5 8.5t-8.5 22.5z" />
<glyph unicode="Q" horiz-adv-x="1675" d="M61 717q0 220 89 389t255 263.5t386 94.5q219 0 384.5 -94.5t254 -263.5t88.5 -389q0 -268 -130 -458t-358 -259q99 -24 256 -100q61 -31 96 -46.5t90 -29.5t111 -14q12 0 21.5 -9.5t9.5 -21.5t-9.5 -21.5t-21.5 -9.5q-63 0 -125.5 15.5t-100.5 32t-100 48.5 q-62 31 -95.5 45.5t-96 36.5t-130 31.5t-147.5 9.5q-219 1 -384.5 96t-254 264.5t-88.5 389.5zM123 717q0 -314 179.5 -501t488.5 -187q307 0 486 187t179 501q0 312 -179 499t-486 187q-309 0 -488.5 -186.5t-179.5 -499.5z" />
<glyph unicode="R" horiz-adv-x="1499" d="M154 0q0 14 8.5 22.5t21.5 8.5h101v1372h-101q-13 0 -21.5 8.5t-8.5 22.5t8 22t22 8h361q239 0 368 -104.5t129 -298.5q0 -150 -92.5 -247t-292.5 -152q307 -346 484 -488.5t286 -142.5q12 0 21.5 -9.5t9.5 -21.5t-9.5 -21.5t-21.5 -9.5q-129 0 -319.5 153t-519.5 523 q-17 19 -11 40.5t31 25.5q200 50 286.5 132.5t86.5 217.5q0 342 -436 342h-199v-1372h137q12 0 21.5 -9.5t9.5 -21.5t-9.5 -21.5t-21.5 -9.5h-299q-13 0 -21.5 8.5t-8.5 22.5z" />
<glyph unicode="S" horiz-adv-x="1107" d="M197 158v237q0 12 9 21.5t21 9.5t21.5 -9.5t9.5 -21.5v-229q14 -17 37.5 -35t64.5 -43t103 -41t131 -16q181 0 270.5 93t89.5 241q0 156 -80 234.5t-268 127.5q-82 22 -150 54t-124.5 78t-88.5 109.5t-32 139.5q0 72 26 133t67.5 101t93 69t101.5 42.5t95 14.5q13 0 26 1 q84 0 144 -18q70 -20 143 -62q13 -9 13 -21l18 -229v-2q0 -12 -9.5 -21.5t-21.5 -9.5t-20 8.5t-10 20.5l-17 211q-63 34 -121 49q-48 13 -117 13q-14 0 -28 -1q-51 -2 -104.5 -20.5t-103.5 -53t-82 -93.5t-32 -132q0 -121 95.5 -200.5t255.5 -121.5q203 -54 298 -148.5 t95 -272.5q0 -80 -25.5 -150t-75.5 -126t-132.5 -88t-188.5 -32q-68 0 -130.5 15t-103.5 34.5t-77 45t-51.5 40.5t-24.5 27l-4 8l-4 11z" />
<glyph unicode="T" horiz-adv-x="1286" d="M53 1157l88 285q7 22 31 22h946q22 0 29 -20l98 -318v-8v-4q0 -12 -9.5 -20.5t-21.5 -8.5q-20 0 -28 23l-92 295h-420v-1372h137q13 0 22 -9.5t9 -21.5t-9 -21.5t-22 -9.5h-297q-14 0 -23.5 9t-9.5 22t9.5 22t23.5 9h98v1372h-419l-82 -264q-3 -12 -14.5 -18.5 t-24.5 -2.5q-12 5 -17.5 16t-1.5 23z" />
<glyph unicode="U" horiz-adv-x="1697" d="M154 1438q0 14 8 22t22 8h299q12 0 21.5 -9t9.5 -21t-9.5 -21.5t-21.5 -9.5h-137v-856q0 -518 500 -524q500 6 500 524v856h-101q-13 0 -22 8.5t-9 22.5q0 13 8.5 21.5t22.5 8.5h299q12 0 21.5 -9t9.5 -21t-9.5 -21.5t-21.5 -9.5h-137v-856q0 -286 -147 -434.5 t-414 -151.5q-267 3 -414 151.5t-147 434.5v856h-101q-13 0 -21.5 8.5t-8.5 22.5z" />
<glyph unicode="V" horiz-adv-x="1560" d="M41 1434q0 12 9.5 21t21.5 9h299q13 0 21.5 -8t8.5 -22t-8.5 -22.5t-21.5 -8.5h-86l499 -1317l498 1317h-123q-12 0 -21.5 9.5t-9.5 21.5t9.5 21t21.5 9h299q14 0 22.5 -8.5t8.5 -21.5q0 -14 -8.5 -22.5t-22.5 -8.5h-110l-521 -1376q-12 -32 -43 -32t-43 32l-522 1376 h-147q-12 0 -21.5 9.5t-9.5 21.5z" />
<glyph unicode="W" horiz-adv-x="2174" d="M25 1434q0 12 9 21t21 9h299q14 0 22.5 -8.5t8.5 -21.5q0 -14 -8.5 -22.5t-22.5 -8.5h-92l311 -1299l482 1278q12 32 43 32t43 -32l467 -1278l323 1299h-129q-12 0 -21 9.5t-9 21.5t9 21t21 9h299q14 0 22.5 -8.5t8.5 -21.5q0 -14 -9 -22.5t-22 -8.5h-106l-336 -1346 q-6 -25 -25.5 -35.5t-40.5 -2.5t-30 32l-465 1272l-480 -1272q-9 -24 -30 -32t-40.5 2.5t-25.5 35.5l-323 1346h-144q-12 0 -21 9.5t-9 21.5z" />
<glyph unicode="X" horiz-adv-x="1452" d="M41 0q0 12 9.5 21.5t21.5 9.5h108l510 739l-416 633h-157q-12 0 -21.5 9.5t-9.5 21.5t9.5 21t21.5 9h364q12 0 21.5 -9t9.5 -21t-9.5 -21.5t-21.5 -9.5h-133l379 -578l397 578h-153q-12 0 -21.5 9.5t-9.5 21.5t9.5 21t21.5 9h364q12 0 21.5 -9t9.5 -21t-9.5 -21.5 t-21.5 -9.5h-135l-436 -635l483 -737h133q12 0 21.5 -9.5t9.5 -21.5t-9.5 -21.5t-21.5 -9.5h-364q-12 0 -21.5 9.5t-9.5 21.5t9.5 21.5t21.5 9.5h158l-449 684l-469 -684h180q12 0 21.5 -9.5t9.5 -21.5t-9.5 -21.5t-21.5 -9.5h-364q-12 0 -21.5 9.5t-9.5 21.5z" />
<glyph unicode="Y" horiz-adv-x="1368" d="M41 1434q0 12 9.5 21t21.5 9h329q12 0 21.5 -9t9.5 -21t-9.5 -21.5t-21.5 -9.5h-104l391 -690l391 690h-112q-12 0 -21.5 9.5t-9.5 21.5t9.5 21t21.5 9h329q12 0 21.5 -9t9.5 -21t-9.5 -21.5t-21.5 -9.5h-145l-432 -760v-612h141q12 0 21.5 -9.5t9.5 -21.5t-9.5 -21.5 t-21.5 -9.5h-330q-12 0 -21 9.5t-9 21.5t9 21.5t21 9.5h127v612l-432 760h-153q-12 0 -21.5 9.5t-9.5 21.5z" />
<glyph unicode="Z" horiz-adv-x="1245" d="M70 -9.5q-11 21.5 6 44.5l1020 1368h-920l-37 -305q-2 -11 -10 -19t-20 -8t-21.5 9.5t-9.5 21.5v4l41 332q3 26 31 26h987q28 0 38.5 -21t-6.5 -44l-1019 -1368h976v301q0 12 9.5 21t21.5 9t21.5 -9t9.5 -21v-332q0 -14 -9 -22.5t-22 -8.5h-1048q-28 0 -39 21.5z" />
<glyph unicode="[" horiz-adv-x="591" d="M133 -61v1556q0 13 8.5 22t22.5 9h264q12 0 21.5 -9.5t9.5 -21.5t-9.5 -21.5t-21.5 -9.5h-233v-1495h233q12 0 21.5 -9t9.5 -21t-9.5 -21.5t-21.5 -9.5h-264q-14 0 -22.5 9t-8.5 22z" />
<glyph unicode="\" horiz-adv-x="870" d="M133 1434q0 12 9.5 21t21.5 9q22 0 29 -20l542 -1432q2 -4 2 -12q0 -12 -9 -21.5t-21 -9.5q-22 0 -29 21l-543 1431q-2 4 -2 13z" />
<glyph unicode="]" horiz-adv-x="591" d="M133 -61q0 12 9.5 21t21.5 9h233v1495h-233q-12 0 -21.5 9.5t-9.5 21.5t9.5 21.5t21.5 9.5h264q14 0 22.5 -9t8.5 -22v-1556q0 -13 -8.5 -22t-22.5 -9h-264q-12 0 -21.5 9.5t-9.5 21.5z" />
<glyph unicode="^" />
<glyph unicode="_" horiz-adv-x="1353" d="M133 0q0 12 9.5 21.5t21.5 9.5h1026q12 0 21.5 -9.5t9.5 -21.5t-9.5 -21.5t-21.5 -9.5h-1026q-12 0 -21.5 9.5t-9.5 21.5z" />
<glyph unicode="`" d="M446 1509q0 12 9.5 21.5t21.5 9.5q13 0 23 -10l295 -313q8 -8 8 -21q0 -12 -9.5 -21.5t-21.5 -9.5q-11 0 -22 11l-295 313q-9 9 -9 20z" />
<glyph unicode="a" horiz-adv-x="1064" d="M123 416q0 12 7.5 20t19.5 10l647 84v195q0 129 -74 198.5t-191 69.5q-56 0 -108.5 -10t-86 -22.5t-62 -28.5t-39.5 -24.5t-15 -12.5q-12 -8 -22 -8q-12 0 -21.5 9.5t-9.5 21.5t10 22q5 5 14.5 12.5t43 27.5t71.5 35t99 27.5t126 12.5q138 0 232 -88.5t94 -241.5v-506 q0 -52 12 -90t27 -56.5t34.5 -29.5t28.5 -12.5t15 -1.5q12 0 20.5 -9.5t8.5 -21.5t-9 -21.5t-22 -9.5q-5 0 -12.5 1t-29.5 8t-41 19t-40.5 39t-34.5 64q-59 -62 -149 -95.5t-179 -33.5q-96 0 -167 36.5t-111.5 101.5t-61 141t-24.5 168zM186 389q25 -358 301 -358 q92 0 180.5 39.5t131.5 107.5l-2 41v250z" />
<glyph unicode="b" horiz-adv-x="1189" d="M61 1434q0 11 7.5 20t17.5 10q111 19 188 62q22 14 42 3.5t20 -36.5v-643q171 205 360 205q198 0 305 -130t107 -366q0 -164 -50 -296.5t-151.5 -214t-238.5 -81.5q-187 0 -340 164q-10 -44 -31.5 -77t-42 -48.5t-44 -24.5t-34 -10.5t-16.5 -1.5q-12 0 -21.5 9.5 t-9.5 21.5t9.5 21.5t21.5 9.5q5 0 14.5 1.5t28 12.5t33.5 29.5t26.5 56.5t11.5 90v1237q-69 -34 -176 -55h-4h-4q-12 0 -20.5 9.5t-8.5 21.5zM336 215q63 -82 147 -134t185 -52q118 0 205 70t130.5 189t43.5 271q0 434 -351 434q-55 0 -110 -22.5t-93 -51t-75 -68.5 t-52.5 -61t-29.5 -42v-527v-6z" />
<glyph unicode="c" horiz-adv-x="976" d="M82 504q0 264 125.5 407.5t370.5 143.5q136 0 258 -74q1 -1 3.5 -4.5t2.5 -5.5l8 -15q2 -2 2 -10v-178q0 -12 -9.5 -21.5t-21.5 -9.5t-21 9.5t-9 21.5v168q-86 57 -213 57q-222 0 -328.5 -122.5t-106.5 -366.5q0 -228 105.5 -350.5t290.5 -122.5q61 0 115 14t85.5 31 t57.5 40t34 33.5t13 18.5q10 14 26 14q12 0 21.5 -9t9.5 -21q0 -9 -4 -17q-3 -7 -13.5 -21t-40.5 -40.5t-68 -48.5t-101 -39t-135 -17q-208 0 -332.5 142.5t-124.5 392.5z" />
<glyph unicode="d" horiz-adv-x="1122" d="M82 461q0 164 50 296.5t151.5 214t238.5 81.5q95 0 180.5 -43t151.5 -111v559q-69 -34 -176 -55h-4h-4q-12 0 -20.5 9.5t-8.5 21.5q0 11 7.5 20t17.5 10q111 19 188 62q22 14 41.5 3.5t19.5 -36.5v-1272q0 -53 12 -92t28.5 -57t33.5 -28.5t29 -11.5l12 -1q12 0 21.5 -9.5 t9.5 -21.5t-9.5 -21.5t-21.5 -9.5q-6 0 -16.5 1t-38.5 12t-50 30.5t-42.5 61t-26.5 98.5q-168 -207 -362 -207q-198 0 -305 130t-107 366zM143 461q0 -434 351 -434q55 0 110 22.5t93 51t75 68.5t52.5 61t29.5 42v533q-63 82 -147 134t-185 52q-118 0 -205 -70t-130.5 -189 t-43.5 -271z" />
<glyph unicode="e" horiz-adv-x="976" d="M82 512q0 145 46.5 267.5t139.5 199t215 76.5q336 0 363 -369q12 1 20.5 -7t10.5 -22q3 -28 -29 -32l-29 -2l-676 -72v-39q0 -96 22 -180.5t65.5 -152.5t116 -108t165.5 -40q58 0 116 10.5t96 23t75 30t47.5 24t19.5 12.5t19 6q12 0 21 -9.5t9 -21.5q0 -17 -14 -24 q-3 -3 -20.5 -14t-54.5 -28.5t-81 -32.5t-107 -26.5t-126 -11.5q-109 0 -194 47t-135 126t-75.5 173t-25.5 197zM150 614l634 66q-11 156 -79.5 234.5t-221.5 78.5q-134 0 -222.5 -105.5t-110.5 -273.5z" />
<glyph unicode="f" horiz-adv-x="780" d="M80 1024q0 12 9.5 21.5t21.5 9.5h112v24q0 105 18.5 186.5t48.5 130.5t71.5 80t82 42.5t86.5 11.5q156 0 252 -80q9 -9 9 -20v-166q0 -12 -9.5 -21.5t-21.5 -9.5t-21.5 9.5t-9.5 21.5v149q-77 55 -199 55q-40 0 -72.5 -9t-65.5 -35t-56 -68t-37 -112.5t-14 -164.5v-24 h317q12 0 21.5 -9.5t9.5 -21.5t-9.5 -21.5t-21.5 -9.5h-317v-848q0 -70 -23 -114h160q12 0 21.5 -9.5t9.5 -21.5t-9.5 -21.5t-21.5 -9.5h-299q-13 0 -22 8.5t-9 22.5q0 13 9.5 22t23.5 9q63 1 80.5 22t17.5 92v848h-112q-12 0 -21.5 9.5t-9.5 21.5z" />
<glyph unicode="g" horiz-adv-x="1067" d="M51 -135q0 13 8 18l254 234q-151 39 -151 137q0 67 45 116.5t104 80.5q-61 45 -95 114t-34 152q0 148 98 243t252 95q161 0 263 -76q117 23 194 72q12 4 17 4q13 0 21.5 -9.5t8.5 -21.5q0 -16 -14 -27q-78 -47 -174 -69q74 -83 74 -211q0 -150 -105.5 -242t-284.5 -92 q-85 0 -155 31q-20 -8 -40 -19t-49 -31t-47 -49t-18 -61q0 -100 336 -100q242 0 359 -74q114 -71 114 -202v-7q0 -157 -128 -234t-394 -77q-444 0 -459 305zM115 -150q11 -119 105.5 -174t289.5 -55q248 0 354 59q109 61 109 195q0 106 -95 161q-97 56 -319 56 q-88 0 -170 10zM244 717q0 -84 37.5 -146.5t105.5 -95.5l2 -2q66 -29 143 -29q157 0 242.5 74t85.5 199q0 128 -85.5 202t-242.5 74q-132 0 -210 -75t-78 -201z" />
<glyph unicode="h" horiz-adv-x="1253" d="M61 1434q0 11 7.5 20t17.5 10q111 19 188 62q22 14 42 3.5t20 -36.5v-651q164 213 403 213q165 0 235 -99.5t70 -296.5v-514q0 -72 -22 -114h160q12 0 21 -9.5t9 -21.5t-9 -21.5t-21 -9.5h-299q-13 0 -22 8.5t-9 22.5q0 13 9.5 22t23.5 9q63 1 80.5 22t17.5 92v514 q0 178 -53.5 256t-190.5 78q-245 0 -403 -258v-590q0 -70 -23 -114h160q12 0 21.5 -9.5t9.5 -21.5t-9.5 -21.5t-21.5 -9.5h-299q-14 0 -22.5 8.5t-8.5 22.5q0 13 9.5 22t23.5 9q63 1 80.5 22t17.5 92v584q-2 2 -2 10q0 9 2 11v708q-69 -34 -176 -55h-4h-4q-12 0 -20.5 9.5 t-8.5 21.5z" />
<glyph unicode="i" horiz-adv-x="565" d="M61 948q0 11 7.5 20.5t17.5 10.5q114 20 188 61q22 14 42 4t20 -36v-863q0 -70 -23 -114h160q12 0 21.5 -9.5t9.5 -21.5t-9.5 -21.5t-21.5 -9.5h-299q-14 0 -22.5 8.5t-8.5 22.5q0 13 9.5 22t23.5 9q63 1 80.5 22t17.5 92v828q-69 -34 -176 -55h-4h-4q-12 0 -20.5 9 t-8.5 21zM276 1196v313q0 12 9.5 21.5t21.5 9.5t21.5 -9.5t9.5 -21.5v-313q0 -12 -9.5 -21.5t-21.5 -9.5t-21.5 9.5t-9.5 21.5z" />
<glyph unicode="j" horiz-adv-x="555" d="M61 -410q0 22 21 29q9 4 16 7t29 18t39 32.5t39.5 49.5t37.5 69.5t25.5 93t10.5 119.5v965q-69 -34 -177 -55h-4h-4q-12 0 -20 9t-8 21q0 11 7 20.5t17 10.5q115 20 189 61q22 14 41.5 4t19.5 -36v-1000q0 -100 -24.5 -183t-55 -128t-70 -79t-58 -43t-30.5 -13 q-2 -2 -10 -2q-12 0 -21.5 9t-9.5 21zM276 1196v313q0 12 9.5 21.5t21.5 9.5t21.5 -9.5t9.5 -21.5v-313q0 -12 -9.5 -21.5t-21.5 -9.5t-21.5 9.5t-9.5 21.5z" />
<glyph unicode="k" horiz-adv-x="1222" d="M31 1434q0 11 7 20t19 10q110 19 187 62q22 14 41.5 3.5t19.5 -36.5v-1040l387 358q74 71 74 123q0 31 -19.5 43.5t-78.5 15.5q-14 0 -23.5 9t-9.5 22q0 14 8.5 22.5t22.5 8.5h299q12 0 21 -9.5t9 -21.5t-9 -21.5t-21 -9.5h-152q14 -22 14 -59q0 -39 -26 -85t-68 -83 l-139 -131q62 -124 121 -222.5t104.5 -161t91.5 -107t76.5 -66t65.5 -33t51 -13t41 -1.5h6q12 0 21.5 -9.5t9.5 -21.5t-9.5 -21.5t-21.5 -9.5h-6q-27 0 -44.5 1.5t-56.5 13.5t-72.5 34t-84.5 68t-100 110t-112 166t-128 230l-242 -223v-224q0 -72 -22 -114h159 q12 0 21.5 -9.5t9.5 -21.5t-9.5 -21.5t-21.5 -9.5h-299q-13 0 -21.5 8.5t-8.5 22.5q0 13 9 22t23 9q63 1 81 22t18 92v1313q-69 -34 -176 -55h-5h-4q-12 0 -20 9.5t-8 21.5z" />
<glyph unicode="l" horiz-adv-x="565" d="M61 1434q0 11 7.5 20t17.5 10q111 19 188 62q22 14 42 3.5t20 -36.5v-1348q0 -70 -23 -114h160q12 0 21.5 -9.5t9.5 -21.5t-9.5 -21.5t-21.5 -9.5h-299q-14 0 -22.5 8.5t-8.5 22.5q0 13 9.5 22t23.5 9q63 1 80.5 22t17.5 92v1313q-69 -34 -176 -55h-4h-4q-12 0 -20.5 9.5 t-8.5 21.5z" />
<glyph unicode="m" horiz-adv-x="1961" d="M61 952q0 11 7.5 20.5t17.5 10.5q112 19 188 61q22 14 42 4t20 -36v-170q164 213 403 213q229 0 287 -236q74 101 180 168.5t242 67.5q84 0 145 -32t95 -88.5t49.5 -124.5t15.5 -151v-514q0 -72 -22 -114h159q12 0 21.5 -9.5t9.5 -21.5t-9.5 -21.5t-21.5 -9.5h-299 q-13 0 -21.5 8.5t-8.5 22.5q0 13 9 22t23 9q63 1 81 22t18 92v514q0 334 -244 334q-251 0 -406 -264q2 -23 2 -70v-514q0 -72 -22 -114h160q12 0 21 -9.5t9 -21.5t-9 -21.5t-21 -9.5h-299q-13 0 -22 8.5t-9 22.5q0 13 9.5 22t23.5 9q63 1 80.5 22t17.5 92v514 q0 334 -244 334q-245 0 -403 -258v-590q0 -70 -23 -114h160q12 0 21.5 -9.5t9.5 -21.5t-9.5 -21.5t-21.5 -9.5h-299q-14 0 -22.5 8.5t-8.5 22.5q0 13 9.5 22t23.5 9q63 1 80.5 22t17.5 92v584q-2 2 -2 10q0 9 2 11v227q-69 -34 -176 -55h-4h-4q-12 0 -20.5 9t-8.5 21z" />
<glyph unicode="n" horiz-adv-x="1253" d="M61 952q0 11 7.5 20.5t17.5 10.5q114 20 188 61q22 14 42 4t20 -36v-170q164 213 403 213q165 0 235 -99.5t70 -296.5v-514q0 -72 -22 -114h160q12 0 21 -9.5t9 -21.5t-9 -21.5t-21 -9.5h-299q-13 0 -22 8.5t-9 22.5q0 13 9.5 22t23.5 9q63 1 80.5 22t17.5 92v514 q0 178 -53.5 256t-190.5 78q-245 0 -403 -258v-590q0 -70 -23 -114h160q12 0 21.5 -9.5t9.5 -21.5t-9.5 -21.5t-21.5 -9.5h-299q-14 0 -22.5 8.5t-8.5 22.5q0 13 9.5 22t23.5 9q63 1 80.5 22t17.5 92v584q-2 2 -2 10q0 9 2 11v227q-69 -34 -176 -55h-4h-4q-12 0 -20.5 9 t-8.5 21z" />
<glyph unicode="o" horiz-adv-x="1120" d="M82 512q0 252 125 397.5t352 145.5q229 0 354 -145.5t125 -397.5t-125 -397.5t-354 -145.5q-227 0 -352 145.5t-125 397.5zM143 512q0 -232 106 -356.5t310 -124.5q205 0 311.5 124.5t106.5 356.5t-106.5 356.5t-311.5 124.5q-204 0 -310 -124.5t-106 -356.5z" />
<glyph unicode="p" horiz-adv-x="1196" d="M61 948q0 11 7.5 20.5t17.5 10.5q114 20 188 61q22 14 42 4t20 -36v-164q171 211 366 211q198 0 305 -130t107 -366q0 -164 -50 -296.5t-151.5 -214t-238.5 -81.5q-182 0 -338 160v-395q0 -74 -21 -111h158q12 0 21.5 -9.5t9.5 -21.5t-9.5 -21t-21.5 -9h-299 q-14 0 -22.5 8.5t-8.5 21.5t9.5 22t23.5 9q64 1 81 21t17 90v1241q-69 -34 -176 -55h-4h-4q-12 0 -20.5 9t-8.5 21zM336 223q144 -194 338 -194q118 0 205 70t130.5 189t43.5 271q0 434 -351 434q-56 0 -112 -24t-93 -51.5t-76.5 -71t-51 -60t-28.5 -41.5q-2 -3 -3 -4l-2 -4 v-514z" />
<glyph unicode="q" horiz-adv-x="1124" d="M82 463q0 164 50 296.5t151.5 214t238.5 81.5q95 0 180.5 -43t151.5 -111v123q0 12 9.5 21.5t21.5 9.5t21 -9.5t9 -21.5v-1292q0 -75 -20 -111h158q12 0 21 -9.5t9 -21.5t-9 -21t-21 -9h-299q-14 0 -22.5 8.5t-8.5 21.5t9.5 22t23.5 9q64 1 81 21t17 90v440 q-171 -205 -360 -205q-198 0 -305 130t-107 366zM143 463q0 -434 351 -434q55 0 110 22.5t93 51t75 68.5t52.5 61t29.5 42v533q-63 82 -147 134t-185 52q-118 0 -205 -70t-130.5 -189t-43.5 -271z" />
<glyph unicode="r" horiz-adv-x="962" d="M61 952q0 11 7.5 20.5t17.5 10.5q114 20 188 61q22 14 42 4t20 -36v-162q64 93 149 149t211 56q92 0 160 -35q14 -8 14 -25v-192q0 -12 -9 -21.5t-21 -9.5t-21.5 9.5t-9.5 21.5v170q-47 20 -113 20q-58 0 -108 -16t-84 -38t-68.5 -61t-53.5 -68t-46 -75v-590 q0 -70 -23 -114h160q12 0 21.5 -9.5t9.5 -21.5t-9.5 -21.5t-21.5 -9.5h-299q-14 0 -22.5 8.5t-8.5 22.5q0 13 9.5 22t23.5 9q63 1 80.5 22t17.5 92v584q-2 2 -2 10q0 9 2 11v227q-69 -34 -176 -55h-4h-4q-12 0 -20.5 9t-8.5 21z" />
<glyph unicode="s" horiz-adv-x="907" d="M113 100l2 156q0 12 9 21.5t21 9.5t21.5 -9.5t9.5 -21.5l-2 -147q98 -78 246 -78q72 0 129 17t90.5 43.5t55.5 60.5t30 63.5t8 58.5q0 35 -9.5 64t-22.5 49.5t-38.5 38t-45.5 28t-58 22t-61 17t-68 15.5q-43 9 -65.5 14.5t-62 18t-61 23.5t-50 31t-43 42.5t-25 54.5 t-10.5 70q0 121 81 207t228 86q179 0 274 -74q6 -6 6 -10l7 -13q2 -2 2 -8v-159q0 -12 -9.5 -21.5t-21.5 -9.5t-21.5 9.5t-9.5 21.5v149q-76 53 -227 53q-121 0 -184.5 -65.5t-63.5 -165.5q0 -28 8 -51t18.5 -39.5t33.5 -31.5t39.5 -23.5t52 -19t55.5 -15.5t63 -15l54 -12 t53 -14t54 -17.5t48.5 -21.5t46 -28t37 -35t31.5 -44.5t18.5 -54.5t8.5 -66q0 -34 -10 -71t-37 -80t-67.5 -76.5t-108 -55.5t-152.5 -22q-58 0 -112 12.5t-91.5 31t-57.5 31.5t-32 24q-1 1 -3 4t-3 4l-6 14q-2 2 -2 10zM143 762q0 -33 9 -57q-9 24 -9 57q0 112 72 187 t207 75q-135 0 -207 -75t-72 -187zM152 705q6 -25 26 -56q-20 31 -26 56z" />
<glyph unicode="t" horiz-adv-x="790" d="M51 1024q0 12 9.5 21.5t21.5 9.5q96 0 156.5 62t60.5 177q0 12 9.5 21.5t21.5 9.5t21 -9.5t9 -21.5q0 -154 -102 -239h451q12 0 21 -9.5t9 -21.5t-9 -21.5t-21 -9.5h-349v-602q0 -55 2 -93.5t8 -83.5t19 -75t33.5 -56.5t53 -39t75.5 -12.5q17 0 33 2t29 5t24 7t20 8 t14.5 7t10.5 6l4 2q9 6 19 6q12 0 21 -9.5t9 -21.5q0 -16 -12 -25l-4 -2q-4 -3 -9.5 -6.5t-15 -8t-20 -9t-24.5 -8.5t-29 -7.5t-33 -5.5t-37 -2q-49 0 -88 13.5t-65 35.5t-45 56.5t-29 68t-16 80t-7.5 83t-1.5 85.5v602h-217q-12 0 -21.5 9.5t-9.5 21.5z" />
<glyph unicode="u" horiz-adv-x="1298" d="M39 948q0 11 7 20.5t17 10.5q115 20 189 61q22 14 41.5 4t19.5 -36v-643q0 -178 53.5 -256t190.5 -78q248 0 406 262v680q-69 -34 -177 -55h-4h-4q-12 0 -20 9t-8 21q0 24 24 31q115 20 189 61q22 14 41.5 4t19.5 -36v-721q0 -60 12.5 -107t31.5 -74.5t44.5 -45t48 -23.5 t45.5 -6q12 0 21.5 -9.5t9.5 -21.5t-9.5 -21.5t-21.5 -9.5q-24 0 -49.5 6t-55.5 22.5t-54.5 41t-45.5 65t-30 91.5q-73 -98 -177 -162t-237 -64q-165 0 -235 99.5t-70 296.5v608q-69 -34 -176 -55h-4h-4q-12 0 -20.5 9t-8.5 21z" />
<glyph unicode="v" horiz-adv-x="1204" d="M41 1024q0 13 5 22t11 9h314q12 0 21 -9.5t9 -21.5t-9 -21.5t-21 -9.5h-150q40 -50 80 -143l313 -770l320 772q29 71 29 102q0 25 -20 32t-73 7h-6q-13 0 -21.5 8.5t-8.5 22.5q0 31 10 31h319q12 0 21.5 -9.5t9.5 -21.5t-9.5 -21.5t-21.5 -9.5h-145q6 -15 6 -39 q0 -51 -33 -127l-336 -809q-12 -29 -41 -29t-41 29l-329 807q-29 72 -54.5 108.5t-48 47.5t-57.5 12h-12q-14 0 -22.5 8.5t-8.5 22.5z" />
<glyph unicode="w" horiz-adv-x="1806" d="M41 1024q0 13 5 22t11 9h314q12 0 21 -9.5t9 -21.5t-9 -21.5t-21 -9.5h-150q40 -50 80 -143l313 -770l236 569q0 11 8 19l76 184q29 71 29 102q0 25 -20 32t-73 7h-6q-13 0 -21.5 8.5t-8.5 22.5q0 31 10 31h319q12 0 21.5 -9.5t9.5 -21.5t-9.5 -21.5t-21.5 -9.5h-145 q6 -15 6 -39q0 -51 -33 -127l-76 -182l261 -571l360 778q31 66 31 102q0 26 -25 32.5t-94 6.5q-12 0 -12 31q0 14 8.5 22.5t21.5 8.5h299q12 0 21.5 -9.5t9.5 -21.5t-9.5 -21.5t-21.5 -9.5h-143q6 -15 6 -39q0 -53 -35 -127l-379 -817q-12 -28 -38.5 -28t-38.5 28l-254 557 l-228 -549q-12 -29 -41 -29t-41 29l-329 807q-29 72 -54.5 108.5t-48 47.5t-57.5 12h-12q-14 0 -22.5 8.5t-8.5 22.5z" />
<glyph unicode="x" horiz-adv-x="1138" d="M41 0q0 14 8.5 22.5t22.5 8.5q55 3 86.5 26.5t101.5 106.5l287 362l-230 295q-75 109 -105.5 138.5t-78.5 33.5q-12 0 -20.5 9t-8.5 22q0 14 9 22.5t22 8.5h299q12 0 21.5 -9.5t9.5 -21.5t-9.5 -21.5t-21.5 -9.5h-172q40 -43 105 -135l219 -283l223 283q63 83 63 111 q0 21 -135 24q-14 0 -23 9t-9 22q0 14 8.5 22.5t21.5 8.5h299q12 0 21.5 -9.5t9.5 -21.5t-9.5 -21.5t-21.5 -9.5h-104q4 -16 4 -24q0 -49 -76 -148l-233 -297l278 -360q55 -70 55 -117v-16h140q12 0 21 -9.5t9 -21.5t-9 -21.5t-21 -9.5h-299q-13 0 -22 8.5t-9 22.5 q0 13 9.5 22t23.5 9q96 3 96 16q0 24 -43 80l-268 348l-279 -350q-63 -74 -86 -94h150q12 0 21 -9.5t9 -21.5t-9 -21.5t-21 -9.5h-299q-14 0 -22.5 8.5t-8.5 22.5z" />
<glyph unicode="y" horiz-adv-x="1177" d="M41 1024q0 14 8.5 22.5t22.5 8.5h299q12 0 21 -9.5t9 -21.5t-9 -21.5t-21 -9.5h-133q16 -25 47 -106l14 -33l313 -770l295 766q31 85 31 113q0 19 -18 24.5t-78 5.5q-15 0 -25 9t-10 22q0 14 8.5 22.5t22.5 8.5h299q12 0 21 -9.5t9 -21.5t-9 -21.5t-21 -9.5h-142 q4 -16 4 -30q0 -50 -34 -134l-324 -839v-2q-70 -169 -130 -262.5t-117 -129.5t-132 -36q-88 0 -144.5 34.5t-56.5 96.5q0 12 9.5 21t21.5 9t21.5 -9t9.5 -21q0 -70 139 -70q60 0 104.5 29.5t96 111.5t117.5 238l-338 829l-13 35q-15 37 -22 53t-18.5 34.5t-18.5 23.5t-23 11 t-30.5 6.5t-42.5 0.5q-14 0 -23.5 9t-9.5 22zM139 -385q1 -1 29 -12q-28 11 -29 12zM168 -397q44 -13 94 -13q-50 0 -94 13zM262 -410q80 0 133 43q-53 -43 -133 -43z" />
<glyph unicode="z" horiz-adv-x="970" d="M43 -8.5q-11 22.5 6 45.5l756 956h-592v-194q0 -12 -9.5 -21.5t-21.5 -9.5q-13 0 -21.5 9.5t-8.5 21.5v225q0 14 8.5 22.5t21.5 8.5h664q29 0 39.5 -22.5t-6.5 -45.5l-754 -956h711v194q0 12 8.5 21.5t21.5 9.5q12 0 21.5 -9.5t9.5 -21.5v-225q0 -13 -9.5 -22t-23.5 -9 h-782q-28 0 -39 22.5z" />
<glyph unicode="{" horiz-adv-x="735" d="M119 670q-3 31 20 39q68 30 105.5 120t31.5 215q0 113 18 200.5t46 139.5t66 85t73 45t72 12q12 0 21.5 -9.5t9.5 -21.5t-9.5 -21.5t-21.5 -9.5q-31 0 -58 -9.5t-56.5 -37.5t-50.5 -72.5t-34.5 -122t-13.5 -178.5q6 -115 -25.5 -210t-93.5 -148q62 -53 93.5 -148 t25.5 -210q0 -149 79 -254t154 -105q12 0 21.5 -9t9.5 -21t-9.5 -21.5t-21.5 -9.5q-45 0 -96.5 32t-95.5 86t-73.5 135t-29.5 169q7 134 -36.5 227.5t-120.5 112.5z" />
<glyph unicode="|" />
<glyph unicode="}" horiz-adv-x="735" d="M133 -61q0 12 9.5 21t21.5 9q75 0 154 105t79 254q-6 115 25.5 210t93.5 148q-62 53 -93.5 148t-25.5 210q0 101 -13.5 178.5t-34.5 122t-50.5 72.5t-56.5 37.5t-58 9.5q-12 0 -21 9.5t-9 21.5t9 21.5t21 9.5q37 0 72 -12t73 -45t66 -85t46 -140.5t18 -201.5 q-7 -134 36.5 -227.5t120.5 -112.5q3 -30 -22 -38q-68 -30 -105 -120.5t-30 -215.5q0 -87 -29.5 -167.5t-74 -134.5t-96 -86t-95.5 -32q-12 0 -21.5 9.5t-9.5 21.5z" />
<glyph unicode="~" />
<glyph unicode="&#xa1;" horiz-adv-x="327" d="M133 0v1024q0 12 9.5 21.5t21.5 9.5t21.5 -9.5t9.5 -21.5v-1024q0 -12 -9.5 -21.5t-21.5 -9.5t-21.5 9.5t-9.5 21.5zM133 1227v207q0 12 9.5 21t21.5 9t21.5 -9t9.5 -21v-207q0 -12 -9.5 -21.5t-21.5 -9.5t-21.5 9.5t-9.5 21.5z" />
<glyph unicode="&#xa2;" />
<glyph unicode="&#xa3;" d="M51 700q0 12 9.5 21.5t21.5 9.5h166l-15 326q0 166 119.5 286.5t292.5 120.5q111 0 196 -35.5t130 -99.5q6 -9 6 -18q0 -12 -9.5 -21.5t-21.5 -9.5q-17 0 -24 14q-79 109 -277 109q-150 0 -250 -101t-100 -245l14 -326h418q12 0 21.5 -9.5t9.5 -21.5t-9.5 -21t-21.5 -9 h-416l13 -267q7 -169 -93 -307q109 31 181 31q98 0 223 -55q87 -41 139 -41q84 0 151.5 41.5t106.5 109.5q11 15 27 15q12 0 21.5 -9.5t9.5 -21.5q0 -6 -5 -16q-48 -79 -129.5 -130t-181.5 -51q-70 0 -166 45q-36 17 -59 26t-60.5 17.5t-76.5 8.5q-67 0 -158 -26t-154 -63 q-3 -1 -9.5 5.5t-12.5 17.5q-5 7 -7.5 14t-2.5 11t2 6q100 61 148.5 161.5t43.5 206.5l-12 271h-168q-12 0 -21.5 9t-9.5 21z" />
<glyph unicode="&#xa5;" />
<glyph unicode="&#xa6;" />
<glyph unicode="&#xa7;" />
<glyph unicode="&#xa8;" d="M369 1196v313q0 12 9 21.5t21 9.5t21.5 -9.5t9.5 -21.5v-313q0 -12 -9.5 -21.5t-21.5 -9.5t-21 9.5t-9 21.5zM758 1196v313q0 12 9 21.5t21 9.5t21.5 -9.5t9.5 -21.5v-313q0 -12 -9.5 -21.5t-21.5 -9.5t-21 9.5t-9 21.5z" />
<glyph unicode="&#xa9;" horiz-adv-x="1640" d="M72 717q0 150 60 288.5t160.5 238.5t239 160t289.5 60q150 0 288.5 -60t239 -160t160.5 -238.5t60 -288.5q0 -151 -60 -289.5t-160.5 -239.5t-239 -161t-288.5 -60q-151 0 -289.5 60t-239 161t-160.5 239.5t-60 289.5zM133 717q0 -187 92 -345.5t250.5 -250.5t345.5 -92 q186 0 344 92t250 250.5t92 345.5q0 186 -92 344t-250 250t-344 92q-187 0 -345.5 -92t-250.5 -250t-92 -344zM475 698q0 181 109.5 293.5t289.5 112.5q112 0 205 -49q17 -7 17 -27q0 -12 -9.5 -21.5t-21.5 -9.5q-6 0 -14 4q-80 41 -177 41q-157 0 -247 -92.5t-90 -251.5 q0 -160 90 -255t247 -95q104 0 177 43q12 4 16 4q12 0 21.5 -9t9.5 -21q0 -20 -17 -27q-88 -51 -207 -51q-181 0 -290 114.5t-109 296.5z" />
<glyph unicode="&#xaa;" horiz-adv-x="1064" d="M123 416q0 12 7.5 20t19.5 10l647 84v195q0 129 -74 198.5t-191 69.5q-56 0 -108.5 -10t-86 -22.5t-62 -28.5t-39.5 -24.5t-15 -12.5q-12 -8 -22 -8q-12 0 -21.5 9.5t-9.5 21.5t10 22q5 5 14.5 12.5t43 27.5t71.5 35t99 27.5t126 12.5q138 0 232 -88.5t94 -241.5v-506 q0 -52 12 -90t27 -56.5t34.5 -29.5t28.5 -12.5t15 -1.5q12 0 20.5 -9.5t8.5 -21.5t-9 -21.5t-22 -9.5q-5 0 -12.5 1t-29.5 8t-41 19t-40.5 39t-34.5 64q-59 -62 -149 -95.5t-179 -33.5q-96 0 -167 36.5t-111.5 101.5t-61 141t-24.5 168zM186 389q25 -358 301 -358 q92 0 180.5 39.5t131.5 107.5l-2 41v250z" />
<glyph unicode="&#xab;" horiz-adv-x="1017" d="M132 587.5q0 13.5 11 22.5l355 332q12 8 22 8q12 0 21.5 -9t9.5 -21q0 -13 -10 -23l-332 -309l332 -309q10 -10 10 -23q0 -12 -9.5 -21.5t-21.5 -9.5q-10 0 -22 8l-355 332q-11 9 -11 22.5zM468 587.5q0 13.5 11 22.5l352 332q12 8 23 8q12 0 21.5 -9t9.5 -21t-11 -23 l-329 -309l329 -309q11 -11 11 -23t-9.5 -21.5t-21.5 -9.5q-11 0 -23 8l-352 332q-11 9 -11 22.5z" />
<glyph unicode="&#xac;" />
<glyph unicode="&#xad;" horiz-adv-x="1210" d="M133 623q0 12 9.5 21t21.5 9h883q12 0 21 -9t9 -21t-9 -21.5t-21 -9.5h-883q-12 0 -21.5 9.5t-9.5 21.5z" />
<glyph unicode="&#xae;" horiz-adv-x="1640" d="M72 717q0 150 60 288.5t160.5 238.5t239 160t289.5 60q150 0 288.5 -60t239 -160t160.5 -238.5t60 -288.5q0 -151 -60 -289.5t-160.5 -239.5t-239 -161t-288.5 -60q-151 0 -289.5 60t-239 161t-160.5 239.5t-60 289.5zM133 717q0 -187 92 -345.5t250.5 -250.5t345.5 -92 q186 0 344 92t250 250.5t92 345.5q0 186 -92 344t-250 250t-344 92q-187 0 -345.5 -92t-250.5 -250t-92 -344zM584 348v756q0 14 8.5 22.5t21.5 8.5h121q130 0 203.5 -60.5t73.5 -167.5q0 -160 -193 -217q151 -169 240 -240t141 -71q12 0 21.5 -9.5t9.5 -21.5t-9.5 -21.5 t-21.5 -9.5q-70 0 -173 82t-275 275q-17 19 -10 40t32 27q95 23 135.5 62.5t40.5 103.5q0 84 -52 125t-163 41h-90v-725q0 -12 -9.5 -21.5t-21.5 -9.5t-21 9.5t-9 21.5z" />
<glyph unicode="&#xaf;" />
<glyph unicode="&#xb0;" />
<glyph unicode="&#xb1;" />
<glyph unicode="&#xb4;" d="M446 1196q0 12 9 21l295 313q10 10 22 10t21.5 -9.5t9.5 -21.5t-8 -20l-295 -313q-11 -11 -23 -11t-21.5 9.5t-9.5 21.5z" />
<glyph unicode="&#xb6;" d="M211 1126q0 161 109.5 249.5t308.5 88.5h358q12 0 21.5 -9t9.5 -21q0 -9 -2 -11v-1423q0 -12 -9.5 -21.5t-21.5 -9.5t-21.5 9.5t-9.5 21.5v1403h-151v-1403q0 -12 -9.5 -21.5t-21.5 -9.5t-21.5 9.5t-9.5 21.5v1403h-112q-357 0 -357 -277q0 -141 88 -221t252 -80l54 2 q12 0 21 -9t9 -21t-8 -21.5t-20 -9.5l-56 -2q-186 0 -293.5 99t-107.5 263z" />
<glyph unicode="&#xb7;" horiz-adv-x="327" d="M133 410v206q0 12 9.5 21.5t21.5 9.5t21.5 -9.5t9.5 -21.5v-206q0 -12 -9.5 -21.5t-21.5 -9.5t-21.5 9.5t-9.5 21.5z" />
<glyph unicode="&#xb8;" d="M500 -338q0 12 9 21.5t21 9.5q21 0 29 -19q8 -21 37 -37t61 -16q62 0 101 36.5t39 84.5q0 59 -43.5 91t-110.5 30q-17 0 -27 9t-10 24l2 104q0 12 9.5 21.5t21.5 9.5t21.5 -9.5t9.5 -21.5l-2 -76q80 -6 135 -54.5t55 -127.5q0 -71 -57.5 -126.5t-143.5 -55.5 q-47 0 -93.5 26.5t-61.5 63.5q-2 4 -2 12z" />
<glyph unicode="&#xba;" horiz-adv-x="1120" d="M82 512q0 252 125 397.5t352 145.5q229 0 354 -145.5t125 -397.5t-125 -397.5t-354 -145.5q-227 0 -352 145.5t-125 397.5zM143 512q0 -232 106 -356.5t310 -124.5q205 0 311.5 124.5t106.5 356.5t-106.5 356.5t-311.5 124.5q-204 0 -310 -124.5t-106 -356.5z" />
<glyph unicode="&#xbb;" horiz-adv-x="1017" d="M133 256q0 13 10 23l330 309l-330 309q-10 10 -10 23q0 12 9.5 21t21.5 9t20 -8l355 -332q11 -9 11 -22.5t-11 -22.5l-355 -332q-8 -8 -20 -8t-21.5 9.5t-9.5 21.5zM467 256q0 13 10 23l332 309l-332 309q-10 10 -10 23q0 12 9.5 21t21.5 9t20 -8l356 -332 q10 -9 10 -22.5t-10 -22.5l-356 -332q-8 -8 -20 -8t-21.5 9.5t-9.5 21.5z" />
<glyph unicode="&#xbf;" horiz-adv-x="991" d="M133 326q0 74 30 136.5t83.5 107.5t118 77t143.5 55v322q0 12 9.5 21.5t21.5 9.5t21 -9.5t9 -21.5v-346q0 -10 -6 -18t-16 -9q-352 -95 -352 -325q0 -72 32 -130.5t81.5 -92.5t102.5 -52t103 -20q90 -3 148 11.5t118 47.5l17 211q2 12 10 20.5t20 8.5t21.5 -9.5 t9.5 -21.5v-2l-18 -229q0 -12 -13 -21q-73 -42 -142.5 -61.5t-170.5 -16.5q-57 2 -120.5 24t-123 63t-98.5 112t-39 158zM508 1227v207q0 12 9.5 21t21.5 9t21 -9t9 -21v-207q0 -12 -9 -21.5t-21 -9.5t-21.5 9.5t-9.5 21.5z" />
<glyph unicode="&#xc0;" horiz-adv-x="1560" d="M72 0q0 14 8.5 22.5t21.5 8.5h111l500 1374q12 34 43 34t43 -32l542 -1376h148q12 0 21.5 -9.5t9.5 -21.5t-9.5 -21.5t-21.5 -9.5h-299q-14 0 -22.5 8.5t-8.5 22.5t8.5 22.5t22.5 8.5h86l-223 567h-570l-207 -567h125q12 0 21.5 -9.5t9.5 -21.5t-9.5 -21.5t-21.5 -9.5 h-299q-13 0 -21.5 8.5t-8.5 22.5zM506 659h522l-272 689zM590 1921q0 12 9.5 21.5t21.5 9.5t22 -10l295 -314q8 -8 8 -20t-9.5 -21.5t-21.5 -9.5t-22 10l-295 314q-8 8 -8 20z" />
<glyph unicode="&#xc1;" horiz-adv-x="1560" d="M72 0q0 14 8.5 22.5t21.5 8.5h111l500 1374q12 34 43 34t43 -32l542 -1376h148q12 0 21.5 -9.5t9.5 -21.5t-9.5 -21.5t-21.5 -9.5h-299q-14 0 -22.5 8.5t-8.5 22.5t8.5 22.5t22.5 8.5h86l-223 567h-570l-207 -567h125q12 0 21.5 -9.5t9.5 -21.5t-9.5 -21.5t-21.5 -9.5 h-299q-13 0 -21.5 8.5t-8.5 22.5zM506 659h522l-272 689zM571 1608q0 11 9 20l294 314q10 10 23 10q12 0 21.5 -9.5t9.5 -21.5t-8 -20l-295 -314q-10 -10 -23 -10q-12 0 -21.5 9.5t-9.5 21.5z" />
<glyph unicode="&#xc2;" horiz-adv-x="1560" d="M72 0q0 14 8.5 22.5t21.5 8.5h111l500 1374q12 34 43 34t43 -32l542 -1376h148q12 0 21.5 -9.5t9.5 -21.5t-9.5 -21.5t-21.5 -9.5h-299q-14 0 -22.5 8.5t-8.5 22.5t8.5 22.5t22.5 8.5h86l-223 567h-570l-207 -567h125q12 0 21.5 -9.5t9.5 -21.5t-9.5 -21.5t-21.5 -9.5 h-299q-13 0 -21.5 8.5t-8.5 22.5zM473 1608q0 12 6 18l240 309q11 15 27 15t26 -15l236 -309q6 -6 6 -18t-9.5 -21.5t-21.5 -9.5q-16 0 -25 12l-213 281l-217 -281q-9 -12 -24 -12q-12 0 -21.5 9.5t-9.5 21.5zM506 659h522l-272 689z" />
<glyph unicode="&#xc3;" horiz-adv-x="1560" d="M72 0q0 14 8.5 22.5t21.5 8.5h111l500 1374q12 34 43 34t43 -32l542 -1376h148q12 0 21.5 -9.5t9.5 -21.5t-9.5 -21.5t-21.5 -9.5h-299q-14 0 -22.5 8.5t-8.5 22.5t8.5 22.5t22.5 8.5h86l-223 567h-570l-207 -567h125q12 0 21.5 -9.5t9.5 -21.5t-9.5 -21.5t-21.5 -9.5 h-299q-13 0 -21.5 8.5t-8.5 22.5zM395 1665l2 8l11 37q17 60 64 93.5t106 35.5q36 1 74.5 -19.5t59 -39.5t56.5 -56q29 -30 46 -46t40.5 -29.5t44.5 -14.5q47 0 83.5 23.5t53.5 64.5q8 19 29 19q12 0 21.5 -9.5t9.5 -21.5q0 -8 -2 -12q-25 -57 -78 -91t-119 -34 q-25 1 -48.5 9.5t-48 28t-37.5 31.5t-40 39q-34 36 -50.5 51t-43 30.5t-51.5 15.5q-41 -2 -71 -23t-42 -61l-8 -37q-8 -23 -31 -23q-12 0 -21.5 9.5t-9.5 21.5zM506 659h522l-272 689z" />
<glyph unicode="&#xc4;" horiz-adv-x="1560" d="M72 0q0 14 8.5 22.5t21.5 8.5h111l500 1374q12 34 43 34t43 -32l542 -1376h148q12 0 21.5 -9.5t9.5 -21.5t-9.5 -21.5t-21.5 -9.5h-299q-14 0 -22.5 8.5t-8.5 22.5t8.5 22.5t22.5 8.5h86l-223 567h-570l-207 -567h125q12 0 21.5 -9.5t9.5 -21.5t-9.5 -21.5t-21.5 -9.5 h-299q-13 0 -21.5 8.5t-8.5 22.5zM506 659h522l-272 689zM524 1616v313q0 12 9.5 21.5t21.5 9.5t21.5 -9.5t9.5 -21.5v-313q0 -12 -9.5 -21.5t-21.5 -9.5t-21.5 9.5t-9.5 21.5zM913 1616v313q0 12 9.5 21.5t21.5 9.5t21.5 -9.5t9.5 -21.5v-313q0 -12 -9.5 -21.5t-21.5 -9.5 t-21.5 9.5t-9.5 21.5z" />
<glyph unicode="&#xc5;" horiz-adv-x="1560" d="M72 0q0 14 8.5 22.5t21.5 8.5h111l500 1374q12 34 43 34t43 -32l542 -1376h148q12 0 21.5 -9.5t9.5 -21.5t-9.5 -21.5t-21.5 -9.5h-299q-14 0 -22.5 8.5t-8.5 22.5t8.5 22.5t22.5 8.5h86l-223 567h-570l-207 -567h125q12 0 21.5 -9.5t9.5 -21.5t-9.5 -21.5t-21.5 -9.5 h-299q-13 0 -21.5 8.5t-8.5 22.5zM506 659h522l-272 689zM580 1759q0 88 61.5 137t140.5 46q73 3 136 -47.5t63 -135.5q0 -71 -57.5 -126.5t-143.5 -55.5t-143 55.5t-57 126.5zM641 1759q0 -48 38.5 -84.5t100.5 -36.5t101 36.5t39 84.5q0 60 -41.5 92t-96.5 29 q-60 3 -100.5 -28t-40.5 -93z" />
<glyph unicode="&#xc6;" horiz-adv-x="2025" d="M72 0q0 14 8.5 22.5t21.5 8.5h111l514 1413q7 20 29 20h1081q10 0 18 -6t9 -16l82 -332l2 -8q0 -12 -9.5 -21.5t-21.5 -9.5q-24 0 -31 25l-76 307h-706v-602h426v135q0 12 9.5 21.5t21.5 9.5t21 -9.5t9 -21.5v-330q0 -12 -9 -21.5t-21 -9.5t-21.5 9.5t-9.5 21.5v133h-426 v-708h708l97 309q4 22 28 22q12 0 20.5 -8t10.5 -20v-4l-2 -8l-102 -332q-7 -21 -27 -21h-895q-14 0 -22.5 8.5t-8.5 22.5t8.5 22.5t22.5 8.5h100v567h-559l-207 -567h125q12 0 21.5 -9.5t9.5 -21.5t-9.5 -21.5t-21.5 -9.5h-299q-13 0 -21.5 8.5t-8.5 22.5zM506 659h536v744 h-266z" />
<glyph unicode="&#xc7;" horiz-adv-x="1302" d="M61 723q0 333 199.5 537t530.5 204q211 0 378 -90q15 -9 15 -24v-332q0 -12 -9.5 -21.5t-21.5 -9.5t-21.5 9.5t-9.5 21.5v311q-148 74 -331 74q-310 0 -489 -184t-179 -496q0 -314 180 -503t488 -189q190 0 337 75v312q0 12 9.5 21.5t21.5 9.5t21.5 -9.5t9.5 -21.5v-332 q0 -17 -14 -23q-163 -94 -385 -94q-165 0 -302 55.5t-230.5 154.5t-145.5 239t-52 305zM500 -338q0 12 9 21.5t21 9.5q21 0 29 -19q8 -21 37 -37t61 -16q62 0 101 36.5t39 84.5q0 59 -43.5 91t-110.5 30q-17 0 -27 9t-10 24l2 104q0 12 9.5 21.5t21.5 9.5t21.5 -9.5 t9.5 -21.5l-2 -76q80 -6 135 -54.5t55 -127.5q0 -71 -57.5 -126.5t-143.5 -55.5q-47 0 -93.5 26.5t-61.5 63.5q-2 4 -2 12z" />
<glyph unicode="&#xc8;" horiz-adv-x="1267" d="M154 0q0 14 8.5 22.5t21.5 8.5h101v1372h-101q-13 0 -21.5 8.5t-8.5 22.5t8 22t22 8h895q10 0 18 -6t9 -16l82 -332l2 -8q0 -12 -9.5 -21.5t-21.5 -9.5q-24 0 -31 25l-75 307h-707v-602h426v135q0 12 9.5 21.5t21.5 9.5t21.5 -9.5t9.5 -21.5v-330q0 -12 -9.5 -21.5 t-21.5 -9.5t-21.5 9.5t-9.5 21.5v133h-426v-708h709l96 309q2 9 10.5 15.5t18.5 6.5q26 0 30 -28v-4l-2 -8l-102 -332q-7 -21 -27 -21h-895q-13 0 -21.5 8.5t-8.5 22.5zM487 1919q0 12 9.5 21.5t21.5 9.5t23 -11l295 -313q8 -8 8 -20t-9.5 -21.5t-21.5 -9.5t-22 10l-295 313 q-9 9 -9 21z" />
<glyph unicode="&#xc9;" horiz-adv-x="1267" d="M154 0q0 14 8.5 22.5t21.5 8.5h101v1372h-101q-13 0 -21.5 8.5t-8.5 22.5t8 22t22 8h895q10 0 18 -6t9 -16l82 -332l2 -8q0 -12 -9.5 -21.5t-21.5 -9.5q-24 0 -31 25l-75 307h-707v-602h426v135q0 12 9.5 21.5t21.5 9.5t21.5 -9.5t9.5 -21.5v-330q0 -12 -9.5 -21.5 t-21.5 -9.5t-21.5 9.5t-9.5 21.5v133h-426v-708h709l96 309q2 9 10.5 15.5t18.5 6.5q26 0 30 -28v-4l-2 -8l-102 -332q-7 -21 -27 -21h-895q-13 0 -21.5 8.5t-8.5 22.5zM469 1606q0 12 8 20l295 313q11 11 23 11t21 -9.5t9 -21.5q0 -13 -8 -21l-295 -313q-10 -10 -22 -10 t-21.5 9.5t-9.5 21.5z" />
<glyph unicode="&#xca;" horiz-adv-x="1267" d="M154 0q0 14 8.5 22.5t21.5 8.5h101v1372h-101q-13 0 -21.5 8.5t-8.5 22.5t8 22t22 8h895q10 0 18 -6t9 -16l82 -332l2 -8q0 -12 -9.5 -21.5t-21.5 -9.5q-24 0 -31 25l-75 307h-707v-602h426v135q0 12 9.5 21.5t21.5 9.5t21.5 -9.5t9.5 -21.5v-330q0 -12 -9.5 -21.5 t-21.5 -9.5t-21.5 9.5t-9.5 21.5v133h-426v-708h709l96 309q2 9 10.5 15.5t18.5 6.5q26 0 30 -28v-4l-2 -8l-102 -332q-7 -21 -27 -21h-895q-13 0 -21.5 8.5t-8.5 22.5zM371 1606q0 12 6 18l239 309q10 15 26.5 15t27.5 -15l235 -309q6 -6 6 -18t-9 -21.5t-21 -9.5 q-16 0 -25 12l-213 281l-217 -281q-9 -12 -25 -12q-12 0 -21 9.5t-9 21.5z" />
<glyph unicode="&#xcb;" horiz-adv-x="1267" d="M154 0q0 14 8.5 22.5t21.5 8.5h101v1372h-101q-13 0 -21.5 8.5t-8.5 22.5t8 22t22 8h895q10 0 18 -6t9 -16l82 -332l2 -8q0 -12 -9.5 -21.5t-21.5 -9.5q-24 0 -31 25l-75 307h-707v-602h426v135q0 12 9.5 21.5t21.5 9.5t21.5 -9.5t9.5 -21.5v-330q0 -12 -9.5 -21.5 t-21.5 -9.5t-21.5 9.5t-9.5 21.5v133h-426v-708h709l96 309q2 9 10.5 15.5t18.5 6.5q26 0 30 -28v-4l-2 -8l-102 -332q-7 -21 -27 -21h-895q-13 0 -21.5 8.5t-8.5 22.5zM422 1614v313q0 12 9.5 21.5t21.5 9.5t21 -9.5t9 -21.5v-313q0 -12 -9 -21.5t-21 -9.5t-21.5 9.5 t-9.5 21.5zM811 1614v313q0 12 9.5 21.5t21.5 9.5t21 -9.5t9 -21.5v-313q0 -12 -9 -21.5t-21 -9.5t-21.5 9.5t-9.5 21.5z" />
<glyph unicode="&#xcc;" horiz-adv-x="636" d="M150 1919q0 12 9 21.5t21 9.5t23 -11l295 -313q8 -8 8 -20t-9.5 -21.5t-21.5 -9.5t-22 10l-295 313q-8 8 -8 21zM154 0q0 14 8.5 22.5t21.5 8.5h101v1372h-101q-13 0 -21.5 8.5t-8.5 22.5t8 22t22 8h299q12 0 21.5 -9t9.5 -21t-9.5 -21.5t-21.5 -9.5h-137v-1372h137 q12 0 21.5 -9.5t9.5 -21.5t-9.5 -21.5t-21.5 -9.5h-299q-13 0 -21.5 8.5t-8.5 22.5z" />
<glyph unicode="&#xcd;" horiz-adv-x="636" d="M131 1606q0 12 8 20l295 313q11 11 23 11t21 -9.5t9 -21.5q0 -13 -8 -21l-295 -313q-10 -10 -22 -10t-21.5 9.5t-9.5 21.5zM154 0q0 14 8.5 22.5t21.5 8.5h101v1372h-101q-13 0 -21.5 8.5t-8.5 22.5t8 22t22 8h299q12 0 21.5 -9t9.5 -21t-9.5 -21.5t-21.5 -9.5h-137 v-1372h137q12 0 21.5 -9.5t9.5 -21.5t-9.5 -21.5t-21.5 -9.5h-299q-13 0 -21.5 8.5t-8.5 22.5z" />
<glyph unicode="&#xce;" horiz-adv-x="636" d="M33 1606q0 12 6 18l240 309q10 15 26 15t27 -15l235 -309q6 -6 6 -18t-9 -21.5t-21 -9.5q-16 0 -25 12l-213 281l-217 -281q-9 -12 -25 -12q-12 0 -21 9.5t-9 21.5zM154 0q0 14 8.5 22.5t21.5 8.5h101v1372h-101q-13 0 -21.5 8.5t-8.5 22.5t8 22t22 8h299q12 0 21.5 -9 t9.5 -21t-9.5 -21.5t-21.5 -9.5h-137v-1372h137q12 0 21.5 -9.5t9.5 -21.5t-9.5 -21.5t-21.5 -9.5h-299q-13 0 -21.5 8.5t-8.5 22.5z" />
<glyph unicode="&#xcf;" horiz-adv-x="636" d="M84 1614v313q0 12 9.5 21.5t21.5 9.5t21 -9.5t9 -21.5v-313q0 -12 -9 -21.5t-21 -9.5t-21.5 9.5t-9.5 21.5zM154 0q0 14 8.5 22.5t21.5 8.5h101v1372h-101q-13 0 -21.5 8.5t-8.5 22.5t8 22t22 8h299q12 0 21.5 -9t9.5 -21t-9.5 -21.5t-21.5 -9.5h-137v-1372h137 q12 0 21.5 -9.5t9.5 -21.5t-9.5 -21.5t-21.5 -9.5h-299q-13 0 -21.5 8.5t-8.5 22.5zM473 1614v313q0 12 9.5 21.5t21.5 9.5t21.5 -9.5t9.5 -21.5v-313q0 -12 -9.5 -21.5t-21.5 -9.5t-21.5 9.5t-9.5 21.5z" />
<glyph unicode="&#xd0;" horiz-adv-x="1445" d="M133 711q0 12 9.5 21t21.5 9h883q12 0 21 -9t9 -21t-9 -21.5t-21 -9.5h-883q-12 0 -21.5 9.5t-9.5 21.5zM154 0q0 14 8.5 22.5t21.5 8.5h101v1372h-101q-13 0 -21.5 8.5t-8.5 22.5t8 22t22 8h473q152 0 273.5 -35.5t205.5 -100.5t140 -158.5t82 -206t26 -246.5 q0 -137 -23 -247t-79 -205.5t-144.5 -159.5t-224 -100t-313.5 -36h-416q-13 0 -21.5 8.5t-8.5 22.5zM346 31h254q166 0 291 31.5t207 88.5t132.5 144t71.5 189t21 233q0 160 -37.5 283.5t-115.5 215t-207.5 139.5t-305.5 48h-311v-1372z" />
<glyph unicode="&#xd1;" horiz-adv-x="1677" d="M154 0q0 14 8.5 22.5t21.5 8.5h101v1372h-101q-13 0 -21.5 8.5t-8.5 22.5t8 22t22 8h131q31 0 31 -20l979 -1350v1309h-100q-13 0 -22 8.5t-9 22.5q0 13 8.5 21.5t22.5 8.5h299q12 0 21 -9t9 -21t-9 -21.5t-21 -9.5h-138v-1346q0 -38 -33.5 -48.5t-56.5 20.5l-950 1310 v-1308h137q12 0 21.5 -9.5t9.5 -21.5t-9.5 -21.5t-21.5 -9.5h-299q-13 0 -21.5 8.5t-8.5 22.5zM442 1663l2 8l11 37q17 60 64 93.5t106 35.5q36 1 74.5 -19.5t59 -39.5t56.5 -56q29 -30 46 -46t40.5 -29.5t44.5 -14.5q47 0 83.5 23.5t53.5 64.5q8 19 29 19q12 0 21.5 -9.5 t9.5 -21.5q0 -8 -2 -12q-25 -57 -78 -91t-119 -34q-25 1 -48.5 9.5t-48 28t-37.5 31.5t-40 39q-34 36 -50.5 51t-43 30.5t-51.5 15.5q-41 -2 -71 -23t-42 -61l-8 -37q-8 -23 -31 -23q-12 0 -21.5 9.5t-9.5 21.5z" />
<glyph unicode="&#xd2;" horiz-adv-x="1579" d="M61 717q0 220 89 389t255 263.5t386 94.5q219 0 384.5 -94.5t254 -263.5t88.5 -389q0 -221 -88.5 -391t-254 -264.5t-384.5 -94.5q-220 0 -386 94.5t-255 264.5t-89 391zM123 717q0 -314 179.5 -501t488.5 -187q307 0 486 187t179 501q0 312 -179 499t-486 187 q-309 0 -488.5 -186.5t-179.5 -499.5zM625 1919q0 12 9 21.5t21 9.5t23 -11l295 -313q8 -8 8 -20t-9.5 -21.5t-21.5 -9.5t-22 10l-295 313q-8 8 -8 21z" />
<glyph unicode="&#xd3;" horiz-adv-x="1579" d="M61 717q0 220 89 389t255 263.5t386 94.5q219 0 384.5 -94.5t254 -263.5t88.5 -389q0 -221 -88.5 -391t-254 -264.5t-384.5 -94.5q-220 0 -386 94.5t-255 264.5t-89 391zM123 717q0 -314 179.5 -501t488.5 -187q307 0 486 187t179 501q0 312 -179 499t-486 187 q-309 0 -488.5 -186.5t-179.5 -499.5zM606 1606q0 12 8 20l295 313q11 11 23 11t21.5 -9.5t9.5 -21.5t-9 -21l-295 -313q-10 -10 -22 -10t-21.5 9.5t-9.5 21.5z" />
<glyph unicode="&#xd4;" horiz-adv-x="1579" d="M61 717q0 220 89 389t255 263.5t386 94.5q219 0 384.5 -94.5t254 -263.5t88.5 -389q0 -221 -88.5 -391t-254 -264.5t-384.5 -94.5q-220 0 -386 94.5t-255 264.5t-89 391zM123 717q0 -314 179.5 -501t488.5 -187q307 0 486 187t179 501q0 312 -179 499t-486 187 q-309 0 -488.5 -186.5t-179.5 -499.5zM508 1606q0 12 6 18l240 309q10 15 26.5 15t26.5 -15l235 -309q7 -7 7 -18q0 -12 -9.5 -21.5t-21.5 -9.5q-16 0 -25 12l-213 281l-217 -281q-9 -12 -24 -12q-12 0 -21.5 9.5t-9.5 21.5z" />
<glyph unicode="&#xd5;" horiz-adv-x="1579" d="M61 717q0 220 89 389t255 263.5t386 94.5q219 0 384.5 -94.5t254 -263.5t88.5 -389q0 -221 -88.5 -391t-254 -264.5t-384.5 -94.5q-220 0 -386 94.5t-255 264.5t-89 391zM123 717q0 -314 179.5 -501t488.5 -187q307 0 486 187t179 501q0 312 -179 499t-486 187 q-309 0 -488.5 -186.5t-179.5 -499.5zM430 1663l2 8l10 37q17 60 64 93.5t106 35.5q36 1 74.5 -19t60 -40t56.5 -56q29 -30 46 -46t40.5 -29.5t44.5 -14.5q47 0 83.5 23.5t53.5 64.5q8 19 29 19q12 0 21 -9.5t9 -21.5q0 -8 -2 -12q-25 -57 -77.5 -91t-118.5 -34 q-25 1 -48.5 9.5t-48 28t-37.5 31.5t-40 39q-33 35 -50 51t-44 31t-52 15q-41 -2 -70.5 -23t-41.5 -61l-8 -37q-8 -23 -31 -23q-12 0 -21.5 9.5t-9.5 21.5z" />
<glyph unicode="&#xd6;" horiz-adv-x="1579" d="M61 717q0 220 89 389t255 263.5t386 94.5q219 0 384.5 -94.5t254 -263.5t88.5 -389q0 -221 -88.5 -391t-254 -264.5t-384.5 -94.5q-220 0 -386 94.5t-255 264.5t-89 391zM123 717q0 -314 179.5 -501t488.5 -187q307 0 486 187t179 501q0 312 -179 499t-486 187 q-309 0 -488.5 -186.5t-179.5 -499.5zM559 1614v313q0 12 9.5 21.5t21.5 9.5t21.5 -9.5t9.5 -21.5v-313q0 -12 -9.5 -21.5t-21.5 -9.5t-21.5 9.5t-9.5 21.5zM948 1614v313q0 12 9.5 21.5t21.5 9.5t21.5 -9.5t9.5 -21.5v-313q0 -12 -9.5 -21.5t-21.5 -9.5t-21.5 9.5 t-9.5 21.5z" />
<glyph unicode="&#xd7;" />
<glyph unicode="&#xd8;" horiz-adv-x="1579" d="M61 717q0 220 89 389t255 263.5t386 94.5q219 0 384.5 -94.5t254 -263.5t88.5 -389q0 -221 -88.5 -391t-254 -264.5t-384.5 -94.5q-220 0 -386 94.5t-255 264.5t-89 391zM123 717q0 -314 179.5 -501t488.5 -187q307 0 486 187t179 501q0 312 -179 499t-486 187 q-309 0 -488.5 -186.5t-179.5 -499.5zM436 -55q0 8 2 12l594 1552q7 21 29 21q12 0 21.5 -9.5t9.5 -21.5q0 -8 -2 -12l-594 -1553q-7 -20 -29 -20q-12 0 -21.5 9.5t-9.5 21.5z" />
<glyph unicode="&#xd9;" horiz-adv-x="1697" d="M154 1438q0 14 8 22t22 8h299q12 0 21.5 -9t9.5 -21t-9.5 -21.5t-21.5 -9.5h-137v-856q0 -518 500 -524q500 6 500 524v856h-101q-13 0 -22 8.5t-9 22.5q0 13 8.5 21.5t22.5 8.5h299q12 0 21.5 -9t9.5 -21t-9.5 -21.5t-21.5 -9.5h-137v-856q0 -286 -147 -434.5 t-414 -151.5q-267 3 -414 151.5t-147 434.5v856h-101q-13 0 -21.5 8.5t-8.5 22.5zM680 1919q0 12 9.5 21.5t21.5 9.5q11 0 22 -11l295 -313q8 -8 8 -20t-9 -21.5t-21 -9.5q-13 0 -23 10l-295 313q-8 8 -8 21z" />
<glyph unicode="&#xda;" horiz-adv-x="1697" d="M154 1438q0 14 8 22t22 8h299q12 0 21.5 -9t9.5 -21t-9.5 -21.5t-21.5 -9.5h-137v-856q0 -518 500 -524q500 6 500 524v856h-101q-13 0 -22 8.5t-9 22.5q0 13 8.5 21.5t22.5 8.5h299q12 0 21.5 -9t9.5 -21t-9.5 -21.5t-21.5 -9.5h-137v-856q0 -286 -147 -434.5 t-414 -151.5q-267 3 -414 151.5t-147 434.5v856h-101q-13 0 -21.5 8.5t-8.5 22.5zM662 1606q0 12 8 20l295 313q11 11 22 11q12 0 21.5 -9.5t9.5 -21.5q0 -13 -8 -21l-295 -313q-10 -10 -23 -10q-12 0 -21 9.5t-9 21.5z" />
<glyph unicode="&#xdb;" horiz-adv-x="1697" d="M154 1438q0 14 8 22t22 8h299q12 0 21.5 -9t9.5 -21t-9.5 -21.5t-21.5 -9.5h-137v-856q0 -518 500 -524q500 6 500 524v856h-101q-13 0 -22 8.5t-9 22.5q0 13 8.5 21.5t22.5 8.5h299q12 0 21.5 -9t9.5 -21t-9.5 -21.5t-21.5 -9.5h-137v-856q0 -286 -147 -434.5 t-414 -151.5q-267 3 -414 151.5t-147 434.5v856h-101q-13 0 -21.5 8.5t-8.5 22.5zM563 1606q0 12 6 18l240 309q11 15 27 15t26 -15l236 -309q6 -6 6 -18t-9.5 -21.5t-21.5 -9.5q-15 0 -24 12l-213 281l-218 -281q-9 -12 -24 -12q-12 0 -21.5 9.5t-9.5 21.5z" />
<glyph unicode="&#xdc;" horiz-adv-x="1697" d="M154 1438q0 14 8 22t22 8h299q12 0 21.5 -9t9.5 -21t-9.5 -21.5t-21.5 -9.5h-137v-856q0 -518 500 -524q500 6 500 524v856h-101q-13 0 -22 8.5t-9 22.5q0 13 8.5 21.5t22.5 8.5h299q12 0 21.5 -9t9.5 -21t-9.5 -21.5t-21.5 -9.5h-137v-856q0 -286 -147 -434.5 t-414 -151.5q-267 3 -414 151.5t-147 434.5v856h-101q-13 0 -21.5 8.5t-8.5 22.5zM614 1614v313q0 12 9.5 21.5t21.5 9.5t21.5 -9.5t9.5 -21.5v-313q0 -12 -9.5 -21.5t-21.5 -9.5t-21.5 9.5t-9.5 21.5zM1004 1614v313q0 12 9 21.5t21 9.5t21.5 -9.5t9.5 -21.5v-313 q0 -12 -9.5 -21.5t-21.5 -9.5t-21 9.5t-9 21.5z" />
<glyph unicode="&#xdd;" horiz-adv-x="1368" d="M41 1434q0 12 9.5 21t21.5 9h329q12 0 21.5 -9t9.5 -21t-9.5 -21.5t-21.5 -9.5h-104l391 -690l391 690h-112q-12 0 -21.5 9.5t-9.5 21.5t9.5 21t21.5 9h329q12 0 21.5 -9t9.5 -21t-9.5 -21.5t-21.5 -9.5h-145l-432 -760v-612h141q12 0 21.5 -9.5t9.5 -21.5t-9.5 -21.5 t-21.5 -9.5h-330q-12 0 -21 9.5t-9 21.5t9 21.5t21 9.5h127v612l-432 760h-153q-12 0 -21.5 9.5t-9.5 21.5zM504 1606q0 12 8 20l295 313q11 11 22 11q12 0 21.5 -9.5t9.5 -21.5q0 -13 -8 -21l-295 -313q-10 -10 -22 -10t-21.5 9.5t-9.5 21.5z" />
<glyph unicode="&#xde;" />
<glyph unicode="&#xdf;" />
<glyph unicode="&#xe0;" horiz-adv-x="1064" d="M123 416q0 12 7.5 20t19.5 10l647 84v195q0 129 -74 198.5t-191 69.5q-56 0 -108.5 -10t-86 -22.5t-62 -28.5t-39.5 -24.5t-15 -12.5q-12 -8 -22 -8q-12 0 -21.5 9.5t-9.5 21.5t10 22q5 5 14.5 12.5t43 27.5t71.5 35t99 27.5t126 12.5q138 0 232 -88.5t94 -241.5v-506 q0 -52 12 -90t27 -56.5t34.5 -29.5t28.5 -12.5t15 -1.5q12 0 20.5 -9.5t8.5 -21.5t-9 -21.5t-22 -9.5q-5 0 -12.5 1t-29.5 8t-41 19t-40.5 39t-34.5 64q-59 -62 -149 -95.5t-179 -33.5q-96 0 -167 36.5t-111.5 101.5t-61 141t-24.5 168zM186 389q25 -358 301 -358 q92 0 180.5 39.5t131.5 107.5l-2 41v250zM342 1509q0 12 9.5 21.5t21.5 9.5t22 -10l295 -313q8 -8 8 -21q0 -12 -9 -21.5t-21 -9.5t-23 11l-295 313q-8 8 -8 20z" />
<glyph unicode="&#xe1;" horiz-adv-x="1064" d="M123 416q0 12 7.5 20t19.5 10l647 84v195q0 129 -74 198.5t-191 69.5q-56 0 -108.5 -10t-86 -22.5t-62 -28.5t-39.5 -24.5t-15 -12.5q-12 -8 -22 -8q-12 0 -21.5 9.5t-9.5 21.5t10 22q5 5 14.5 12.5t43 27.5t71.5 35t99 27.5t126 12.5q138 0 232 -88.5t94 -241.5v-506 q0 -52 12 -90t27 -56.5t34.5 -29.5t28.5 -12.5t15 -1.5q12 0 20.5 -9.5t8.5 -21.5t-9 -21.5t-22 -9.5q-5 0 -12.5 1t-29.5 8t-41 19t-40.5 39t-34.5 64q-59 -62 -149 -95.5t-179 -33.5q-96 0 -167 36.5t-111.5 101.5t-61 141t-24.5 168zM186 389q25 -358 301 -358 q92 0 180.5 39.5t131.5 107.5l-2 41v250zM324 1196q0 13 8 21l295 313q10 10 22 10t21.5 -9.5t9.5 -21.5t-8 -20l-295 -313q-11 -11 -23 -11t-21 9.5t-9 21.5z" />
<glyph unicode="&#xe2;" horiz-adv-x="1064" d="M123 416q0 12 7.5 20t19.5 10l647 84v195q0 129 -74 198.5t-191 69.5q-56 0 -108.5 -10t-86 -22.5t-62 -28.5t-39.5 -24.5t-15 -12.5q-12 -8 -22 -8q-12 0 -21.5 9.5t-9.5 21.5t10 22q5 5 14.5 12.5t43 27.5t71.5 35t99 27.5t126 12.5q138 0 232 -88.5t94 -241.5v-506 q0 -52 12 -90t27 -56.5t34.5 -29.5t28.5 -12.5t15 -1.5q12 0 20.5 -9.5t8.5 -21.5t-9 -21.5t-22 -9.5q-5 0 -12.5 1t-29.5 8t-41 19t-40.5 39t-34.5 64q-59 -62 -149 -95.5t-179 -33.5q-96 0 -167 36.5t-111.5 101.5t-61 141t-24.5 168zM186 389q25 -358 301 -358 q92 0 180.5 39.5t131.5 107.5l-2 41v250zM225 1196q0 12 6 18l240 310q11 15 26.5 15t26.5 -15l236 -310q6 -6 6 -18t-9.5 -21.5t-21.5 -9.5q-14 0 -24 13l-213 280l-217 -280q-10 -13 -25 -13q-12 0 -21.5 9.5t-9.5 21.5z" />
<glyph unicode="&#xe3;" horiz-adv-x="1064" d="M123 416q0 12 7.5 20t19.5 10l647 84v195q0 129 -74 198.5t-191 69.5q-56 0 -108.5 -10t-86 -22.5t-62 -28.5t-39.5 -24.5t-15 -12.5q-12 -8 -22 -8q-12 0 -21.5 9.5t-9.5 21.5t10 22q5 5 14.5 12.5t43 27.5t71.5 35t99 27.5t126 12.5q138 0 232 -88.5t94 -241.5v-506 q0 -52 12 -90t27 -56.5t34.5 -29.5t28.5 -12.5t15 -1.5q12 0 20.5 -9.5t8.5 -21.5t-9 -21.5t-22 -9.5q-5 0 -12.5 1t-29.5 8t-41 19t-40.5 39t-34.5 64q-59 -62 -149 -95.5t-179 -33.5q-96 0 -167 36.5t-111.5 101.5t-61 141t-24.5 168zM147 1253l3 9l10 36q17 60 64 93.5 t106 35.5q28 1 54 -8t52.5 -29.5t42 -35t41.5 -41.5q29 -30 46 -46t40.5 -29.5t44.5 -14.5q47 0 83.5 23.5t53.5 64.5q7 18 29 18q12 0 21.5 -9.5t9.5 -21.5q0 -8 -2 -12q-25 -57 -78 -91t-119 -34q-25 1 -48 9.5t-48.5 29t-37.5 31.5t-40 39q-33 35 -50 50.5t-43.5 30.5 t-51.5 15q-41 -2 -71 -23t-42 -61l-8 -37q-7 -22 -31 -22q-12 0 -21.5 9t-9.5 21zM186 389q25 -358 301 -358q92 0 180.5 39.5t131.5 107.5l-2 41v250z" />
<glyph unicode="&#xe4;" horiz-adv-x="1064" d="M123 416q0 12 7.5 20t19.5 10l647 84v195q0 129 -74 198.5t-191 69.5q-56 0 -108.5 -10t-86 -22.5t-62 -28.5t-39.5 -24.5t-15 -12.5q-12 -8 -22 -8q-12 0 -21.5 9.5t-9.5 21.5t10 22q5 5 14.5 12.5t43 27.5t71.5 35t99 27.5t126 12.5q138 0 232 -88.5t94 -241.5v-506 q0 -52 12 -90t27 -56.5t34.5 -29.5t28.5 -12.5t15 -1.5q12 0 20.5 -9.5t8.5 -21.5t-9 -21.5t-22 -9.5q-5 0 -12.5 1t-29.5 8t-41 19t-40.5 39t-34.5 64q-59 -62 -149 -95.5t-179 -33.5q-96 0 -167 36.5t-111.5 101.5t-61 141t-24.5 168zM186 389q25 -358 301 -358 q92 0 180.5 39.5t131.5 107.5l-2 41v250zM276 1204v314q0 12 9.5 21t21.5 9t21.5 -9t9.5 -21v-314q0 -12 -9.5 -21t-21.5 -9t-21.5 9t-9.5 21zM666 1204v314q0 12 9 21t21 9t21.5 -9t9.5 -21v-314q0 -12 -9.5 -21t-21.5 -9t-21 9t-9 21z" />
<glyph unicode="&#xe5;" horiz-adv-x="1064" d="M123 416q0 12 7.5 20t19.5 10l647 84v195q0 129 -74 198.5t-191 69.5q-56 0 -108.5 -10t-86 -22.5t-62 -28.5t-39.5 -24.5t-15 -12.5q-12 -8 -22 -8q-12 0 -21.5 9.5t-9.5 21.5t10 22q5 5 14.5 12.5t43 27.5t71.5 35t99 27.5t126 12.5q138 0 232 -88.5t94 -241.5v-506 q0 -52 12 -90t27 -56.5t34.5 -29.5t28.5 -12.5t15 -1.5q12 0 20.5 -9.5t8.5 -21.5t-9 -21.5t-22 -9.5q-5 0 -12.5 1t-29.5 8t-41 19t-40.5 39t-34.5 64q-59 -62 -149 -95.5t-179 -33.5q-96 0 -167 36.5t-111.5 101.5t-61 141t-24.5 168zM186 389q25 -358 301 -358 q92 0 180.5 39.5t131.5 107.5l-2 41v250zM332 1348q0 88 62 136.5t141 45.5q73 3 135.5 -47t62.5 -135q0 -71 -57.5 -127t-143.5 -56t-143 56t-57 127zM393 1348q0 -48 38.5 -84.5t100.5 -36.5t101 36.5t39 84.5q0 60 -41 91.5t-96 28.5q-61 3 -101.5 -28t-40.5 -92z" />
<glyph unicode="&#xe6;" horiz-adv-x="1691" d="M123 416q0 12 7.5 20t19.5 10l647 84v271q0 66 -87 129t-178 63q-56 0 -108.5 -10t-86 -22.5t-62 -28.5t-39.5 -24.5t-15 -12.5q-12 -8 -22 -8q-12 0 -21.5 9.5t-9.5 21.5t10 22q5 5 14.5 12.5t43 27.5t71.5 35t99 27.5t126 12.5q69 0 143.5 -35.5t126.5 -93t56 -115.5 q52 112 139.5 178t200.5 66q336 0 363 -367h6l2 -31q2 -12 -6 -22.5t-21 -11.5l-682 -72l-2 -37v-6q0 -93 14 -167.5t35 -123.5t53 -85t62.5 -55t70.5 -30t69 -13.5t65 -2.5q60 0 118.5 10.5t99.5 25t73.5 29t48.5 24.5l16 11q6 6 16 6q13 0 22 -9.5t9 -21.5q0 -17 -12 -26 q-185 -111 -391 -111q-273 0 -371 217q-15 -65 -81.5 -117t-143.5 -76t-144 -24q-96 0 -167 36.5t-111.5 101.5t-61 141t-24.5 168zM186 389q25 -358 301 -358q63 0 133 22t123.5 67t53.5 99v250zM864 614l635 66q-11 156 -79.5 234.5t-221.5 78.5q-134 0 -223 -105.5 t-111 -273.5z" />
<glyph unicode="&#xe7;" horiz-adv-x="976" d="M82 504q0 264 125.5 407.5t370.5 143.5q136 0 258 -74q1 -1 3.5 -4.5t2.5 -5.5l8 -15q2 -2 2 -10v-178q0 -12 -9.5 -21.5t-21.5 -9.5t-21 9.5t-9 21.5v168q-86 57 -213 57q-222 0 -328.5 -122.5t-106.5 -366.5q0 -228 105.5 -350.5t290.5 -122.5q61 0 115 14t85.5 31 t57.5 40t34 33.5t13 18.5q10 14 26 14q12 0 21.5 -9t9.5 -21q0 -9 -4 -17q-3 -7 -13.5 -21t-40.5 -40.5t-68 -48.5t-101 -39t-135 -17q-208 0 -332.5 142.5t-124.5 392.5zM385 -338q0 12 9.5 21.5t21.5 9.5q20 0 28 -19q8 -21 37.5 -37t61.5 -16q62 0 100.5 36.5t38.5 84.5 q0 59 -43.5 91t-110.5 30q-36 0 -36 33l2 104q0 12 9 21.5t21 9.5t21.5 -9.5t9.5 -21.5l-2 -76q80 -6 135 -54.5t55 -127.5q0 -71 -57 -126.5t-143 -55.5q-48 0 -94.5 26.5t-61.5 63.5q-2 4 -2 12z" />
<glyph unicode="&#xe8;" horiz-adv-x="976" d="M82 512q0 145 46.5 267.5t139.5 199t215 76.5q336 0 363 -369q12 1 20.5 -7t10.5 -22q3 -28 -29 -32l-29 -2l-676 -72v-39q0 -96 22 -180.5t65.5 -152.5t116 -108t165.5 -40q58 0 116 10.5t96 23t75 30t47.5 24t19.5 12.5t19 6q12 0 21 -9.5t9 -21.5q0 -17 -14 -24 q-3 -3 -20.5 -14t-54.5 -28.5t-81 -32.5t-107 -26.5t-126 -11.5q-109 0 -194 47t-135 126t-75.5 173t-25.5 197zM150 614l634 66q-11 156 -79.5 234.5t-221.5 78.5q-134 0 -222.5 -105.5t-110.5 -273.5zM309 1509q0 12 9.5 21.5t21.5 9.5t22 -10l295 -313q9 -9 9 -21 t-9.5 -21.5t-21.5 -9.5t-23 11l-295 313q-8 8 -8 20z" />
<glyph unicode="&#xe9;" horiz-adv-x="976" d="M82 512q0 145 46.5 267.5t139.5 199t215 76.5q336 0 363 -369q12 1 20.5 -7t10.5 -22q3 -28 -29 -32l-29 -2l-676 -72v-39q0 -96 22 -180.5t65.5 -152.5t116 -108t165.5 -40q58 0 116 10.5t96 23t75 30t47.5 24t19.5 12.5t19 6q12 0 21 -9.5t9 -21.5q0 -17 -14 -24 q-3 -3 -20.5 -14t-54.5 -28.5t-81 -32.5t-107 -26.5t-126 -11.5q-109 0 -194 47t-135 126t-75.5 173t-25.5 197zM150 614l634 66q-11 156 -79.5 234.5t-221.5 78.5q-134 0 -222.5 -105.5t-110.5 -273.5zM291 1196q0 13 8 21l295 313q10 10 22 10t21.5 -9.5t9.5 -21.5t-8 -20 l-295 -313q-11 -11 -22 -11q-12 0 -21.5 9.5t-9.5 21.5z" />
<glyph unicode="&#xea;" horiz-adv-x="976" d="M82 512q0 145 46.5 267.5t139.5 199t215 76.5q336 0 363 -369q12 1 20.5 -7t10.5 -22q3 -28 -29 -32l-29 -2l-676 -72v-39q0 -96 22 -180.5t65.5 -152.5t116 -108t165.5 -40q58 0 116 10.5t96 23t75 30t47.5 24t19.5 12.5t19 6q12 0 21 -9.5t9 -21.5q0 -17 -14 -24 q-3 -3 -20.5 -14t-54.5 -28.5t-81 -32.5t-107 -26.5t-126 -11.5q-109 0 -194 47t-135 126t-75.5 173t-25.5 197zM150 614l634 66q-11 156 -79.5 234.5t-221.5 78.5q-134 0 -222.5 -105.5t-110.5 -273.5zM193 1196q0 12 6 18l239 310q11 15 27.5 15t26.5 -15l235 -310 q6 -6 6 -18t-9.5 -21.5t-21.5 -9.5q-14 0 -24 13l-213 280l-217 -280q-10 -13 -25 -13q-12 0 -21 9.5t-9 21.5z" />
<glyph unicode="&#xeb;" horiz-adv-x="976" d="M82 512q0 145 46.5 267.5t139.5 199t215 76.5q336 0 363 -369q12 1 20.5 -7t10.5 -22q3 -28 -29 -32l-29 -2l-676 -72v-39q0 -96 22 -180.5t65.5 -152.5t116 -108t165.5 -40q58 0 116 10.5t96 23t75 30t47.5 24t19.5 12.5t19 6q12 0 21 -9.5t9 -21.5q0 -17 -14 -24 q-3 -3 -20.5 -14t-54.5 -28.5t-81 -32.5t-107 -26.5t-126 -11.5q-109 0 -194 47t-135 126t-75.5 173t-25.5 197zM150 614l634 66q-11 156 -79.5 234.5t-221.5 78.5q-134 0 -222.5 -105.5t-110.5 -273.5zM244 1204v314q0 12 9 21t21 9t21.5 -9t9.5 -21v-314q0 -12 -9.5 -21 t-21.5 -9t-21 9t-9 21zM633 1204v314q0 12 9.5 21t21.5 9t21 -9t9 -21v-314q0 -12 -9 -21t-21 -9t-21.5 9t-9.5 21z" />
<glyph unicode="&#xec;" horiz-adv-x="565" d="M61 948q0 11 7.5 20.5t17.5 10.5q114 20 188 61q22 14 42 4t20 -36v-863q0 -70 -23 -114h160q12 0 21.5 -9.5t9.5 -21.5t-9.5 -21.5t-21.5 -9.5h-299q-14 0 -22.5 8.5t-8.5 22.5q0 13 9.5 22t23.5 9q63 1 80.5 22t17.5 92v828q-69 -34 -176 -55h-4h-4q-12 0 -20.5 9 t-8.5 21zM160 1509q0 12 9 21.5t21 9.5q13 0 23 -10l295 -313q8 -8 8 -21q0 -12 -9.5 -21.5t-21.5 -9.5q-11 0 -22 11l-295 313q-8 8 -8 20z" />
<glyph unicode="&#xed;" d="M61 948q0 11 7.5 20.5t17.5 10.5q114 20 188 61q22 14 42 4t20 -36v-863q0 -70 -23 -114h160q12 0 21.5 -9.5t9.5 -21.5t-9.5 -21.5t-21.5 -9.5h-299q-14 0 -22.5 8.5t-8.5 22.5q0 13 9.5 22t23.5 9q63 1 80.5 22t17.5 92v828q-69 -34 -176 -55h-4h-4q-12 0 -20.5 9 t-8.5 21zM119 1196q0 13 8 21l295 313q10 10 22 10t21.5 -9.5t9.5 -21.5t-8 -20l-295 -313q-11 -11 -22 -11q-12 0 -21.5 9.5t-9.5 21.5z" />
<glyph unicode="&#xee;" horiz-adv-x="565" d="M47 1196q0 12 6 18l240 310q10 15 26 15t27 -15l236 -310q6 -6 6 -18t-9.5 -21.5t-21.5 -9.5q-15 0 -25 13l-213 280l-217 -280q-10 -13 -24 -13q-12 0 -21.5 9.5t-9.5 21.5zM61 948q0 11 7.5 20.5t17.5 10.5q114 20 188 61q22 14 42 4t20 -36v-863q0 -70 -23 -114h160 q12 0 21.5 -9.5t9.5 -21.5t-9.5 -21.5t-21.5 -9.5h-299q-14 0 -22.5 8.5t-8.5 22.5q0 13 9.5 22t23.5 9q63 1 80.5 22t17.5 92v828q-69 -34 -176 -55h-4h-4q-12 0 -20.5 9t-8.5 21z" />
<glyph unicode="&#xef;" horiz-adv-x="565" d="M61 948q0 11 7.5 20.5t17.5 10.5q114 20 188 61q22 14 42 4t20 -36v-863q0 -70 -23 -114h160q12 0 21.5 -9.5t9.5 -21.5t-9.5 -21.5t-21.5 -9.5h-299q-14 0 -22.5 8.5t-8.5 22.5q0 13 9.5 22t23.5 9q63 1 80.5 22t17.5 92v828q-69 -34 -176 -55h-4h-4q-12 0 -20.5 9 t-8.5 21zM61 1196v313q0 12 9.5 21.5t21.5 9.5t21.5 -9.5t9.5 -21.5v-313q0 -12 -9.5 -21.5t-21.5 -9.5t-21.5 9.5t-9.5 21.5zM451 1196v313q0 12 9 21.5t21 9.5t21.5 -9.5t9.5 -21.5v-313q0 -12 -9.5 -21.5t-21.5 -9.5t-21 9.5t-9 21.5z" />
<glyph unicode="&#xf0;" />
<glyph unicode="&#xf1;" horiz-adv-x="1253" d="M61 952q0 11 7.5 20.5t17.5 10.5q114 20 188 61q22 14 42 4t20 -36v-170q164 213 403 213q165 0 235 -99.5t70 -296.5v-514q0 -72 -22 -114h160q12 0 21 -9.5t9 -21.5t-9 -21.5t-21 -9.5h-299q-13 0 -22 8.5t-9 22.5q0 13 9.5 22t23.5 9q63 1 80.5 22t17.5 92v514 q0 178 -53.5 256t-190.5 78q-245 0 -403 -258v-590q0 -70 -23 -114h160q12 0 21.5 -9.5t9.5 -21.5t-9.5 -21.5t-21.5 -9.5h-299q-14 0 -22.5 8.5t-8.5 22.5q0 13 9.5 22t23.5 9q63 1 80.5 22t17.5 92v584q-2 2 -2 10q0 9 2 11v227q-69 -34 -176 -55h-4h-4q-12 0 -20.5 9 t-8.5 21zM248 1257l2 9l10 37q17 60 64 93.5t106 35.5q36 1 74.5 -19t60 -40t56.5 -56q29 -30 46 -46t40.5 -29.5t44.5 -14.5q47 0 83.5 23.5t53.5 64.5q7 18 29 18q12 0 21 -9t9 -21q0 -9 -2 -13q-25 -57 -77.5 -91t-118.5 -34q-32 1 -67.5 20.5t-54 36.5t-53.5 52 q-33 35 -50 50.5t-43.5 30.5t-51.5 15q-41 -2 -71 -23t-42 -61l-8 -37q-7 -22 -30 -22q-12 0 -21.5 9t-9.5 21z" />
<glyph unicode="&#xf2;" horiz-adv-x="1120" d="M82 512q0 252 125 397.5t352 145.5q229 0 354 -145.5t125 -397.5t-125 -397.5t-354 -145.5q-227 0 -352 145.5t-125 397.5zM143 512q0 -232 106 -356.5t310 -124.5q205 0 311.5 124.5t106.5 356.5t-106.5 356.5t-311.5 124.5q-204 0 -310 -124.5t-106 -356.5zM446 1509 q0 12 9.5 21.5t21.5 9.5q13 0 23 -10l295 -313q8 -8 8 -21q0 -12 -9.5 -21.5t-21.5 -9.5q-11 0 -22 11l-295 313q-9 9 -9 20z" />
<glyph unicode="&#xf3;" horiz-adv-x="1120" d="M82 512q0 252 125 397.5t352 145.5q229 0 354 -145.5t125 -397.5t-125 -397.5t-354 -145.5q-227 0 -352 145.5t-125 397.5zM143 512q0 -232 106 -356.5t310 -124.5q205 0 311.5 124.5t106.5 356.5t-106.5 356.5t-311.5 124.5q-204 0 -310 -124.5t-106 -356.5zM446 1196 q0 12 9 21l295 313q10 10 22 10t21.5 -9.5t9.5 -21.5t-8 -20l-295 -313q-11 -11 -23 -11t-21.5 9.5t-9.5 21.5z" />
<glyph unicode="&#xf4;" horiz-adv-x="1120" d="M82 512q0 252 125 397.5t352 145.5q229 0 354 -145.5t125 -397.5t-125 -397.5t-354 -145.5q-227 0 -352 145.5t-125 397.5zM143 512q0 -232 106 -356.5t310 -124.5q205 0 311.5 124.5t106.5 356.5t-106.5 356.5t-311.5 124.5q-204 0 -310 -124.5t-106 -356.5zM334 1196 q0 12 6 18l240 310q10 15 26 15t27 -15l235 -310q6 -6 6 -18t-9 -21.5t-21 -9.5q-15 0 -25 13l-213 280l-217 -280q-10 -13 -24 -13q-12 0 -21.5 9.5t-9.5 21.5z" />
<glyph unicode="&#xf5;" horiz-adv-x="1120" d="M82 512q0 252 125 397.5t352 145.5q229 0 354 -145.5t125 -397.5t-125 -397.5t-354 -145.5q-227 0 -352 145.5t-125 397.5zM143 512q0 -232 106 -356.5t310 -124.5q205 0 311.5 124.5t106.5 356.5t-106.5 356.5t-311.5 124.5q-204 0 -310 -124.5t-106 -356.5zM248 1257 l2 9l10 37q17 60 64 93.5t106 35.5q36 1 74.5 -19t60 -40t56.5 -56q29 -30 46 -46t40.5 -29.5t44.5 -14.5q47 0 83.5 23.5t53.5 64.5q7 18 29 18q12 0 21 -9t9 -21q0 -9 -2 -13q-25 -57 -77.5 -91t-118.5 -34q-32 1 -67.5 20.5t-54 36.5t-53.5 52q-33 35 -50 50.5 t-43.5 30.5t-51.5 15q-41 -2 -71 -23t-42 -61l-8 -37q-7 -22 -30 -22q-12 0 -21.5 9t-9.5 21z" />
<glyph unicode="&#xf6;" horiz-adv-x="1120" d="M82 512q0 252 125 397.5t352 145.5q229 0 354 -145.5t125 -397.5t-125 -397.5t-354 -145.5q-227 0 -352 145.5t-125 397.5zM143 512q0 -232 106 -356.5t310 -124.5q205 0 311.5 124.5t106.5 356.5t-106.5 356.5t-311.5 124.5q-204 0 -310 -124.5t-106 -356.5zM369 1196 v313q0 12 9 21.5t21 9.5t21.5 -9.5t9.5 -21.5v-313q0 -12 -9.5 -21.5t-21.5 -9.5t-21 9.5t-9 21.5zM758 1196v313q0 12 9 21.5t21 9.5t21.5 -9.5t9.5 -21.5v-313q0 -12 -9.5 -21.5t-21.5 -9.5t-21 9.5t-9 21.5z" />
<glyph unicode="&#xf7;" />
<glyph unicode="&#xf8;" horiz-adv-x="1120" d="M82 512q0 252 125 397.5t352 145.5q229 0 354 -145.5t125 -397.5t-125 -397.5t-354 -145.5q-227 0 -352 145.5t-125 397.5zM143 512q0 -232 106 -356.5t310 -124.5q205 0 311.5 124.5t106.5 356.5t-106.5 356.5t-311.5 124.5q-204 0 -310 -124.5t-106 -356.5zM256 -143 q0 8 2 12l500 1319q7 20 28 20q12 0 21.5 -9t9.5 -21q0 -9 -2 -13l-500 -1319q-7 -20 -28 -20q-12 0 -21.5 9.5t-9.5 21.5z" />
<glyph unicode="&#xf9;" horiz-adv-x="1298" d="M39 948q0 11 7 20.5t17 10.5q115 20 189 61q22 14 41.5 4t19.5 -36v-643q0 -178 53.5 -256t190.5 -78q248 0 406 262v680q-69 -34 -177 -55h-4h-4q-12 0 -20 9t-8 21q0 24 24 31q115 20 189 61q22 14 41.5 4t19.5 -36v-721q0 -60 12.5 -107t31.5 -74.5t44.5 -45t48 -23.5 t45.5 -6q12 0 21.5 -9.5t9.5 -21.5t-9.5 -21.5t-21.5 -9.5q-24 0 -49.5 6t-55.5 22.5t-54.5 41t-45.5 65t-30 91.5q-73 -98 -177 -162t-237 -64q-165 0 -235 99.5t-70 296.5v608q-69 -34 -176 -55h-4h-4q-12 0 -20.5 9t-8.5 21zM446 1509q0 12 9.5 21.5t21.5 9.5 q13 0 23 -10l295 -313q8 -8 8 -21q0 -12 -9.5 -21.5t-21.5 -9.5q-11 0 -22 11l-295 313q-9 9 -9 20z" />
<glyph unicode="&#xfa;" horiz-adv-x="1298" d="M39 948q0 11 7 20.5t17 10.5q115 20 189 61q22 14 41.5 4t19.5 -36v-643q0 -178 53.5 -256t190.5 -78q248 0 406 262v680q-69 -34 -177 -55h-4h-4q-12 0 -20 9t-8 21q0 24 24 31q115 20 189 61q22 14 41.5 4t19.5 -36v-721q0 -60 12.5 -107t31.5 -74.5t44.5 -45t48 -23.5 t45.5 -6q12 0 21.5 -9.5t9.5 -21.5t-9.5 -21.5t-21.5 -9.5q-24 0 -49.5 6t-55.5 22.5t-54.5 41t-45.5 65t-30 91.5q-73 -98 -177 -162t-237 -64q-165 0 -235 99.5t-70 296.5v608q-69 -34 -176 -55h-4h-4q-12 0 -20.5 9t-8.5 21zM446 1196q0 12 9 21l295 313q10 10 22 10 t21.5 -9.5t9.5 -21.5t-8 -20l-295 -313q-11 -11 -23 -11t-21.5 9.5t-9.5 21.5z" />
<glyph unicode="&#xfb;" horiz-adv-x="1298" d="M39 948q0 11 7 20.5t17 10.5q115 20 189 61q22 14 41.5 4t19.5 -36v-643q0 -178 53.5 -256t190.5 -78q248 0 406 262v680q-69 -34 -177 -55h-4h-4q-12 0 -20 9t-8 21q0 24 24 31q115 20 189 61q22 14 41.5 4t19.5 -36v-721q0 -60 12.5 -107t31.5 -74.5t44.5 -45t48 -23.5 t45.5 -6q12 0 21.5 -9.5t9.5 -21.5t-9.5 -21.5t-21.5 -9.5q-24 0 -49.5 6t-55.5 22.5t-54.5 41t-45.5 65t-30 91.5q-73 -98 -177 -162t-237 -64q-165 0 -235 99.5t-70 296.5v608q-69 -34 -176 -55h-4h-4q-12 0 -20.5 9t-8.5 21zM334 1196q0 12 6 18l240 310q10 15 26 15 t27 -15l235 -310q6 -6 6 -18t-9 -21.5t-21 -9.5q-15 0 -25 13l-213 280l-217 -280q-10 -13 -24 -13q-12 0 -21.5 9.5t-9.5 21.5z" />
<glyph unicode="&#xfc;" horiz-adv-x="1298" d="M39 948q0 11 7 20.5t17 10.5q115 20 189 61q22 14 41.5 4t19.5 -36v-643q0 -178 53.5 -256t190.5 -78q248 0 406 262v680q-69 -34 -177 -55h-4h-4q-12 0 -20 9t-8 21q0 24 24 31q115 20 189 61q22 14 41.5 4t19.5 -36v-721q0 -60 12.5 -107t31.5 -74.5t44.5 -45t48 -23.5 t45.5 -6q12 0 21.5 -9.5t9.5 -21.5t-9.5 -21.5t-21.5 -9.5q-24 0 -49.5 6t-55.5 22.5t-54.5 41t-45.5 65t-30 91.5q-73 -98 -177 -162t-237 -64q-165 0 -235 99.5t-70 296.5v608q-69 -34 -176 -55h-4h-4q-12 0 -20.5 9t-8.5 21zM369 1196v313q0 12 9 21.5t21 9.5t21.5 -9.5 t9.5 -21.5v-313q0 -12 -9.5 -21.5t-21.5 -9.5t-21 9.5t-9 21.5zM758 1196v313q0 12 9 21.5t21 9.5t21.5 -9.5t9.5 -21.5v-313q0 -12 -9.5 -21.5t-21.5 -9.5t-21 9.5t-9 21.5z" />
<glyph unicode="&#xfd;" horiz-adv-x="1177" d="M41 1024q0 14 8.5 22.5t22.5 8.5h299q12 0 21 -9.5t9 -21.5t-9 -21.5t-21 -9.5h-133q16 -25 47 -106l14 -33l313 -770l295 766q31 85 31 113q0 19 -18 24.5t-78 5.5q-15 0 -25 9t-10 22q0 14 8.5 22.5t22.5 8.5h299q12 0 21 -9.5t9 -21.5t-9 -21.5t-21 -9.5h-142 q4 -16 4 -30q0 -50 -34 -134l-324 -839v-2q-70 -169 -130 -262.5t-117 -129.5t-132 -36q-88 0 -144.5 34.5t-56.5 96.5q0 12 9.5 21t21.5 9t21.5 -9t9.5 -21q0 -70 139 -70q60 0 104.5 29.5t96 111.5t117.5 238l-338 829l-13 35q-15 37 -22 53t-18.5 34.5t-18.5 23.5t-23 11 t-30.5 6.5t-42.5 0.5q-14 0 -23.5 9t-9.5 22zM139 -385q1 -1 29 -12q-28 11 -29 12zM168 -397q44 -13 94 -13q-50 0 -94 13zM262 -410q80 0 133 43q-53 -43 -133 -43zM393 1196q0 13 8 21l295 313q10 10 23 10q12 0 21.5 -9.5t9.5 -21.5q0 -11 -9 -20l-295 -313 q-11 -11 -22 -11q-12 0 -21.5 9.5t-9.5 21.5z" />
<glyph unicode="&#xfe;" />
<glyph unicode="&#xff;" horiz-adv-x="1177" d="M41 1024q0 14 8.5 22.5t22.5 8.5h299q12 0 21 -9.5t9 -21.5t-9 -21.5t-21 -9.5h-133q16 -25 47 -106l14 -33l313 -770l295 766q31 85 31 113q0 19 -18 24.5t-78 5.5q-15 0 -25 9t-10 22q0 14 8.5 22.5t22.5 8.5h299q12 0 21 -9.5t9 -21.5t-9 -21.5t-21 -9.5h-142 q4 -16 4 -30q0 -50 -34 -134l-324 -839v-2q-70 -169 -130 -262.5t-117 -129.5t-132 -36q-88 0 -144.5 34.5t-56.5 96.5q0 12 9.5 21t21.5 9t21.5 -9t9.5 -21q0 -70 139 -70q60 0 104.5 29.5t96 111.5t117.5 238l-338 829l-13 35q-15 37 -22 53t-18.5 34.5t-18.5 23.5t-23 11 t-30.5 6.5t-42.5 0.5q-14 0 -23.5 9t-9.5 22zM139 -385q1 -1 29 -12q-28 11 -29 12zM168 -397q44 -13 94 -13q-50 0 -94 13zM262 -410q80 0 133 43q-53 -43 -133 -43zM346 1204v314q0 12 9.5 21t21.5 9t21.5 -9t9.5 -21v-314q0 -12 -9.5 -21t-21.5 -9t-21.5 9t-9.5 21z M735 1204v314q0 12 9.5 21t21.5 9t21.5 -9t9.5 -21v-314q0 -12 -9.5 -21t-21.5 -9t-21.5 9t-9.5 21z" />
<glyph unicode="&#x152;" horiz-adv-x="2437" d="M61 717q0 220 89 389t255 263.5t386 94.5q219 0 384.5 -94.5t254 -263.5t88.5 -389q0 -221 -88.5 -391t-254 -264.5t-384.5 -94.5q-220 0 -386 94.5t-255 264.5t-89 391zM123 717q0 -314 179.5 -501t488.5 -187q307 0 486 187t179 501q0 312 -179 499t-486 187 q-309 0 -488.5 -186.5t-179.5 -499.5zM1323 0q0 14 8.5 22.5t22.5 8.5h100v1372h-100q-14 0 -22.5 8.5t-8.5 22.5q0 13 8.5 21.5t22.5 8.5h895q23 0 26 -22l82 -332l2 -8q0 -12 -9 -21.5t-21 -9.5q-24 0 -31 25l-76 307h-706v-602h426v135q0 12 9 21.5t21 9.5t21.5 -9.5 t9.5 -21.5v-330q0 -12 -9.5 -21.5t-21.5 -9.5t-21 9.5t-9 21.5v133h-426v-708h708l96 309q2 9 10.5 15.5t18.5 6.5q12 0 20.5 -8t10.5 -20v-4l-2 -8l-103 -332q-7 -21 -26 -21h-895q-14 0 -22.5 8.5t-8.5 22.5z" />
<glyph unicode="&#x153;" horiz-adv-x="1871" d="M82 512q0 252 125 397.5t352 145.5q173 0 288.5 -85t160.5 -239q45 146 141 235t229 89q179 0 263.5 -96.5t99.5 -270.5h4l4 -31q2 -12 -7 -22.5t-22 -11.5l-682 -72v-37v-4q0 -95 22 -179t65 -152t116 -108t166 -40q58 0 115 10t96 23t74 29t49 25t20 13q9 6 19 6 q12 0 21 -9.5t9 -21.5q0 -17 -14 -24q-3 -3 -20.5 -14t-54.5 -28.5t-81 -32.5t-107 -26.5t-126 -11.5q-154 0 -254 89t-145 233q-46 -153 -161.5 -237.5t-287.5 -84.5q-227 0 -352 145.5t-125 397.5zM143 512q0 -232 106 -356.5t310 -124.5q205 0 311.5 124.5t106.5 356.5 t-106.5 356.5t-311.5 124.5q-204 0 -310 -124.5t-106 -356.5zM1044 614l635 66q-11 156 -79.5 234.5t-221.5 78.5q-134 0 -223 -105.5t-111 -273.5z" />
<glyph unicode="&#x178;" horiz-adv-x="1368" d="M41 1434q0 12 9.5 21t21.5 9h329q12 0 21.5 -9t9.5 -21t-9.5 -21.5t-21.5 -9.5h-104l391 -690l391 690h-112q-12 0 -21.5 9.5t-9.5 21.5t9.5 21t21.5 9h329q12 0 21.5 -9t9.5 -21t-9.5 -21.5t-21.5 -9.5h-145l-432 -760v-612h141q12 0 21.5 -9.5t9.5 -21.5t-9.5 -21.5 t-21.5 -9.5h-330q-12 0 -21 9.5t-9 21.5t9 21.5t21 9.5h127v612l-432 760h-153q-12 0 -21.5 9.5t-9.5 21.5zM457 1614v313q0 12 9 21.5t21 9.5t21.5 -9.5t9.5 -21.5v-313q0 -12 -9.5 -21.5t-21.5 -9.5t-21 9.5t-9 21.5zM846 1614v313q0 12 9.5 21.5t21.5 9.5t21 -9.5 t9 -21.5v-313q0 -12 -9 -21.5t-21 -9.5t-21.5 9.5t-9.5 21.5z" />
<glyph unicode="&#x2c6;" d="M334 1196q0 12 6 18l240 310q10 15 26 15t27 -15l235 -310q6 -6 6 -18t-9 -21.5t-21 -9.5q-15 0 -25 13l-213 280l-217 -280q-10 -13 -24 -13q-12 0 -21.5 9.5t-9.5 21.5z" />
<glyph unicode="&#x2dc;" d="M248 1257l2 9l10 37q17 60 64 93.5t106 35.5q36 1 74.5 -19t60 -40t56.5 -56q29 -30 46 -46t40.5 -29.5t44.5 -14.5q47 0 83.5 23.5t53.5 64.5q7 18 29 18q12 0 21 -9t9 -21q0 -9 -2 -13q-25 -57 -77.5 -91t-118.5 -34q-32 1 -67.5 20.5t-54 36.5t-53.5 52 q-33 35 -50 50.5t-43.5 30.5t-51.5 15q-41 -2 -71 -23t-42 -61l-8 -37q-7 -22 -30 -22q-12 0 -21.5 9t-9.5 21z" />
<glyph unicode="&#x2000;" horiz-adv-x="980" />
<glyph unicode="&#x2001;" horiz-adv-x="1960" />
<glyph unicode="&#x2002;" horiz-adv-x="980" />
<glyph unicode="&#x2003;" horiz-adv-x="1960" />
<glyph unicode="&#x2004;" horiz-adv-x="653" />
<glyph unicode="&#x2005;" horiz-adv-x="490" />
<glyph unicode="&#x2006;" horiz-adv-x="326" />
<glyph unicode="&#x2007;" horiz-adv-x="326" />
<glyph unicode="&#x2008;" horiz-adv-x="245" />
<glyph unicode="&#x2009;" horiz-adv-x="392" />
<glyph unicode="&#x200a;" horiz-adv-x="108" />
<glyph unicode="&#x2010;" horiz-adv-x="1210" d="M133 623q0 12 9.5 21t21.5 9h883q12 0 21 -9t9 -21t-9 -21.5t-21 -9.5h-883q-12 0 -21.5 9.5t-9.5 21.5z" />
<glyph unicode="&#x2011;" horiz-adv-x="1210" d="M133 623q0 12 9.5 21t21.5 9h883q12 0 21 -9t9 -21t-9 -21.5t-21 -9.5h-883q-12 0 -21.5 9.5t-9.5 21.5z" />
<glyph unicode="&#x2012;" horiz-adv-x="1210" d="M133 623q0 12 9.5 21t21.5 9h883q12 0 21 -9t9 -21t-9 -21.5t-21 -9.5h-883q-12 0 -21.5 9.5t-9.5 21.5z" />
<glyph unicode="&#x2013;" horiz-adv-x="1128" d="M133 623q0 12 9.5 21t21.5 9h801q12 0 21 -9t9 -21t-9 -21.5t-21 -9.5h-801q-12 0 -21.5 9.5t-9.5 21.5z" />
<glyph unicode="&#x2014;" horiz-adv-x="2172" d="M133 623q0 12 9.5 21t21.5 9h1845q12 0 21.5 -9t9.5 -21t-9.5 -21.5t-21.5 -9.5h-1845q-12 0 -21.5 9.5t-9.5 21.5z" />
<glyph unicode="&#x2018;" horiz-adv-x="483" d="M133 1135q0 163 27.5 246t103.5 120q8 4 15 4q12 0 21 -9t9 -21q0 -18 -18 -29q-53 -26 -73.5 -88.5t-22.5 -194.5h124q12 0 21.5 -9t9.5 -21t-9.5 -21.5t-21.5 -9.5h-155q-13 0 -22 9.5t-9 23.5z" />
<glyph unicode="&#x2019;" horiz-adv-x="483" d="M133 1475q0 12 9.5 21t21.5 9h155q13 0 22 -9t9 -23q0 -163 -27.5 -246.5t-103.5 -120.5q-8 -4 -14 -4q-12 0 -21.5 9.5t-9.5 21.5q0 17 19 28q53 26 73.5 88.5t22.5 194.5h-125q-12 0 -21.5 9.5t-9.5 21.5z" />
<glyph unicode="&#x201a;" horiz-adv-x="1556" d="M297 207q0 12 9.5 21.5t21.5 9.5h155q13 0 22 -9.5t9 -23.5q0 -163 -27.5 -246.5t-103.5 -120.5q-8 -4 -14 -4q-12 0 -21.5 9.5t-9.5 21.5q0 18 18 29q53 26 74 88t23 194h-125q-12 0 -21.5 9.5t-9.5 21.5z" />
<glyph unicode="&#x201c;" horiz-adv-x="749" d="M133 1169q0 163 27.5 246.5t103.5 120.5q8 4 15 4q12 0 21 -9.5t9 -21.5q0 -17 -18 -28q-53 -26 -73.5 -88.5t-22.5 -194.5h124q12 0 21.5 -9.5t9.5 -21.5t-9.5 -21t-21.5 -9h-155q-13 0 -22 9t-9 23zM399 1169q0 163 27.5 246.5t103.5 120.5q8 4 15 4q12 0 21 -9.5 t9 -21.5q0 -17 -18 -28q-53 -26 -73.5 -88.5t-22.5 -194.5h125q12 0 21 -9.5t9 -21.5t-9 -21t-21 -9h-156q-13 0 -22 9t-9 23z" />
<glyph unicode="&#x201d;" horiz-adv-x="749" d="M133 1475q0 12 9.5 21t21.5 9h155q13 0 22 -9t9 -23q0 -163 -27.5 -246.5t-103.5 -120.5q-8 -4 -14 -4q-12 0 -21.5 9.5t-9.5 21.5q0 17 19 28q53 26 73.5 88.5t22.5 194.5h-125q-12 0 -21.5 9.5t-9.5 21.5zM399 1475q0 12 9.5 21t21.5 9h156q13 0 21.5 -9t8.5 -23 q0 -163 -27.5 -246.5t-103.5 -120.5q-8 -4 -14 -4q-12 0 -21.5 9.5t-9.5 21.5q0 17 19 28q53 26 73.5 88.5t22.5 194.5h-125q-12 0 -21.5 9.5t-9.5 21.5z" />
<glyph unicode="&#x201e;" horiz-adv-x="1556" d="M297 207q0 12 9.5 21.5t21.5 9.5h155q13 0 22 -9.5t9 -23.5q0 -163 -27.5 -246.5t-103.5 -120.5q-8 -4 -14 -4q-12 0 -21.5 9.5t-9.5 21.5q0 18 18 29q53 26 74 88t23 194h-125q-12 0 -21.5 9.5t-9.5 21.5zM297 207q0 12 9.5 21.5t21.5 9.5h155q13 0 22 -9.5t9 -23.5 q0 -163 -27.5 -246.5t-103.5 -120.5q-8 -4 -14 -4q-12 0 -21.5 9.5t-9.5 21.5q0 18 18 29q53 26 74 88t23 194h-125q-12 0 -21.5 9.5t-9.5 21.5z" />
<glyph unicode="&#x2022;" horiz-adv-x="1556" />
<glyph unicode="&#x2026;" horiz-adv-x="1556" d="M297 0v207q0 12 9.5 21.5t21.5 9.5t21 -9.5t9 -21.5v-207q0 -12 -9 -21.5t-21 -9.5t-21.5 9.5t-9.5 21.5zM297 0v207q0 12 9.5 21.5t21.5 9.5t21 -9.5t9 -21.5v-207q0 -12 -9 -21.5t-21 -9.5t-21.5 9.5t-9.5 21.5zM297 0v207q0 12 9.5 21.5t21.5 9.5t21 -9.5t9 -21.5 v-207q0 -12 -9 -21.5t-21 -9.5t-21.5 9.5t-9.5 21.5z" />
<glyph unicode="&#x202f;" horiz-adv-x="392" />
<glyph unicode="&#x2039;" horiz-adv-x="684" d="M132 587.5q0 13.5 11 22.5l355 332q12 8 22 8q12 0 21.5 -9t9.5 -21q0 -13 -10 -23l-332 -309l332 -309q10 -10 10 -23q0 -12 -9.5 -21.5t-21.5 -9.5q-10 0 -22 8l-355 332q-11 9 -11 22.5z" />
<glyph unicode="&#x203a;" horiz-adv-x="684" d="M133 256q0 13 10 23l332 309l-332 309q-10 10 -10 23q0 12 9.5 21t21.5 9t20 -8l357 -332q11 -9 11 -22.5t-11 -22.5l-357 -332q-8 -8 -20 -8t-21.5 9.5t-9.5 21.5z" />
<glyph unicode="&#x205f;" horiz-adv-x="490" />
<glyph unicode="&#x20ac;" d="M-49 621q0 12 9.5 21t21.5 9h104q-2 23 -2 70v4h-102q-12 0 -21.5 9.5t-9.5 21.5t9.5 21t21.5 9h104q11 150 67 278t143.5 215.5t201 137t237.5 49.5q162 0 295.5 -67t190.5 -168q2 -4 2 -12l-17 -258q0 -12 -9 -20.5t-21 -8.5t-21.5 10t-9.5 23l16 245 q-54 84 -169 139.5t-257 55.5q-112 0 -215 -44t-182 -123.5t-130 -196.5t-61 -255h783q12 0 21.5 -9t9.5 -21t-9.5 -21.5t-21.5 -9.5h-785v-4q0 -47 2 -70h693q12 0 21 -9t9 -21t-9 -21.5t-21 -9.5h-684q17 -119 65.5 -220.5t123.5 -177t182.5 -118.5t234.5 -43 q140 0 250.5 63t150.5 152q11 18 29 18q12 0 21.5 -9.5t9.5 -21.5q0 -6 -4 -14q-46 -103 -173 -176.5t-284 -73.5q-140 0 -259 48.5t-202 133.5t-136.5 197t-72.5 242h-110q-12 0 -21.5 9.5t-9.5 21.5z" />
<glyph unicode="&#x2122;" horiz-adv-x="1617" d="M72 1434q0 12 9 21t21 9h451q12 0 21.5 -9t9.5 -21t-9.5 -21.5t-21.5 -9.5h-195v-651q0 -12 -9 -21.5t-21 -9.5t-21.5 9.5t-9.5 21.5v651h-195q-12 0 -21 9.5t-9 21.5zM754 752v6l92 588q4 26 26.5 38.5t46.5 4.5t33 -33l191 -518l205 526q9 24 32 31.5t44.5 -4.5 t25.5 -37l96 -596v-4v-4q0 -12 -9 -20.5t-21 -8.5t-20.5 8t-10.5 19l-90 569l-209 -539q-12 -32 -43 -32t-43 34l-197 533l-88 -565q-2 -11 -10.5 -19t-20.5 -8t-21 9.5t-9 21.5z" />
<glyph unicode="&#x25fc;" horiz-adv-x="1054" d="M0 0v1055h1055v-1055h-1055z" />
<glyph unicode="&#xfb01;" horiz-adv-x="1003" d="M117 1024q0 12 9 21.5t21 9.5h113v24q0 237 64.5 345t187.5 114q158 0 295 -96q12 -9 12 -23v-166v-1210l-2 55q-6 -41 -20 -67h159q12 0 21.5 -9.5t9.5 -21.5t-9.5 -21.5t-21.5 -9.5h-299q-13 0 -21.5 8.5t-8.5 22.5q0 13 9 22t23 9q63 1 81 22t18 92v848h-436v-848 q0 -70 -23 -114h160q12 0 21 -9.5t9 -21.5t-9 -21.5t-21 -9.5h-299q-14 0 -22.5 8.5t-8.5 22.5q0 13 9.5 22t23.5 9q63 1 80.5 22t17.5 92v848h-113q-12 0 -21 9.5t-9 21.5zM322 1055h452l-10 198h-6v148q-122 76 -246 76q-64 -4 -104 -39.5t-63 -123.5t-23 -235v-24z" />
<glyph unicode="&#xfb02;" horiz-adv-x="1290" d="M156 1024q0 12 9 21.5t21 9.5h113v24q0 104 18 186.5t45.5 130.5t62 79.5t64.5 43t58 11.5q54 0 109 -22t92 -62q62 15 157 74l15 8q16 8 26 0l19 -10q14 -8 14 -25v-1348q0 -70 -23 -114h160q12 0 21.5 -9.5t9.5 -21.5t-9.5 -21.5t-21.5 -9.5h-299q-13 0 -22 8.5 t-9 22.5q0 13 9.5 22t23.5 9q63 1 81 22t18 92v1311q-96 -60 -181 -74q-12 -2 -26 11q-57 75 -164 75q-21 0 -43 -9t-49 -35.5t-47 -67.5t-34 -113t-14 -164v-24h267q12 0 21 -9.5t9 -21.5t-9 -21.5t-21 -9.5h-267v-848q0 -72 -22 -114h160q12 0 21 -9.5t9 -21.5t-9 -21.5 t-21 -9.5h-299q-13 0 -22 8.5t-9 22.5q0 13 9.5 22t23.5 9q63 1 80.5 22t17.5 92v848h-113q-12 0 -21 9.5t-9 21.5z" />
</font>
</defs>
</svg>
